<svg width="138" height="40" viewBox="0 0 138 40" fill="none" xmlns="http://www.w3.org/2000/svg">
<g clip-path="url(#clip0_3_3575)">
<path d="M0.727539 5.33333C0.727539 2.38781 3.15675 0 6.15334 0H132.574C135.571 0 138 2.38782 138 5.33333V34.6667C138 37.6122 135.571 40 132.574 40H6.15334C3.15675 40 0.727539 37.6122 0.727539 34.6667V5.33333Z" fill="black"/>
<path fill-rule="evenodd" clip-rule="evenodd" d="M0.727539 34.6667V5.33333C0.727539 2.38782 3.15675 0 6.15334 0H132.574C135.571 0 138 2.38781 138 5.33333V34.6667C138 37.6122 135.571 40 132.574 40H6.15334C3.15675 40 0.727539 37.6122 0.727539 34.6667ZM1.54141 34.6667V5.33333C1.54141 2.82964 3.60624 0.8 6.15334 0.8H132.574C135.122 0.8 137.186 2.82964 137.186 5.33333V34.6667C137.186 37.1704 135.122 39.2 132.574 39.2H6.15334C3.60624 39.2 1.54141 37.1704 1.54141 34.6667Z" fill="white" fill-opacity="0.3"/>
<path fill-rule="evenodd" clip-rule="evenodd" d="M17.8607 7.33331C12.566 7.33331 10.6294 9.23658 10.6294 14.44V25.5599C10.6294 30.7634 12.566 32.6666 17.8607 32.6666H29.1671C34.4617 32.6666 36.4019 30.7634 36.4019 25.5599V14.44C36.4019 9.23658 34.4653 7.33331 29.1706 7.33331H17.8607Z" fill="url(#paint0_linear_3_3575)"/>
<path fill-rule="evenodd" clip-rule="evenodd" d="M21.8714 22.0261H22.9061L22.387 20.8395L21.8714 22.0261ZM21.6166 22.6241L21.3097 23.3146H20.6108L22.097 20.0002H22.701L24.1813 23.3146H23.4637L23.1607 22.6241H21.6166ZM32.863 23.3122H33.5385V20H32.863V23.3122ZM30.1745 21.8893H31.4196V21.2854H30.1745V20.6066H31.982V20.0024H29.4992V23.3144H32.0471V22.7103H30.1745V21.8893ZM27.4906 22.2807L26.7248 20H26.1659L25.4001 22.2807L24.6548 20.0018H23.9261L25.1022 23.3164H25.6687L26.4358 21.1392L27.2028 23.3164H27.7743L28.9474 20.0018H28.2375L27.4906 22.2807ZM19.5796 21.8985C19.5796 22.4376 19.3072 22.7257 18.8126 22.7257C18.3152 22.7257 18.0414 22.4293 18.0414 21.8755V20.0022H17.3568V21.8985C17.3568 22.8312 17.8842 23.3661 18.8032 23.3661C19.7314 23.3661 20.2636 22.821 20.2636 21.8708V20.0002H19.5796V21.8985ZM15.7235 20.0002H16.4076V23.3166H15.7235V21.9697H14.1778V23.3166H13.4932V20.0002H14.1778V21.3379H15.7235V20.0002Z" fill="white"/>
<path fill-rule="evenodd" clip-rule="evenodd" d="M23.5156 15.7778C21.1469 15.7778 19.2202 13.8837 19.2202 11.5555H19.827C19.827 13.5547 21.4819 15.1812 23.5156 15.1812C25.5494 15.1812 27.2043 13.5547 27.2043 11.5555H27.8111C27.8111 13.8837 25.8842 15.7778 23.5156 15.7778Z" fill="white"/>
<path d="M50.1636 29.8666L49.0032 26.6948H44.5603L43.4238 29.8666H41.4209L45.7684 18.3979H47.8349L52.1824 29.8666H50.1636ZM48.5025 25.0854L47.4137 21.976C47.3342 21.7677 47.2229 21.4396 47.0798 20.9916C46.9421 20.5437 46.8467 20.2156 46.7937 20.0073C46.6506 20.6479 46.4414 21.3484 46.1658 22.1088L45.1167 25.0854H48.5025Z" fill="white"/>
<path d="M57.7323 30.0229C56.6196 30.0229 55.7559 29.6297 55.1413 28.8432H55.03C55.1042 29.5724 55.1413 30.0151 55.1413 30.1713V33.7104H53.2735V21.226H54.7836C54.826 21.3875 54.9134 21.7729 55.0459 22.3823H55.1413C55.7241 21.5073 56.5984 21.0698 57.7641 21.0698C58.8609 21.0698 59.714 21.4604 60.3233 22.2416C60.938 23.0229 61.2453 24.1192 61.2453 25.5307C61.2453 26.9422 60.9327 28.0437 60.3074 28.8354C59.6875 29.6271 58.8291 30.0229 57.7323 30.0229ZM57.2793 22.5698C56.5375 22.5698 55.9944 22.7833 55.65 23.2104C55.3108 23.6375 55.1413 24.3198 55.1413 25.2573V25.5307C55.1413 26.5828 55.3108 27.3458 55.65 27.8198C55.9891 28.2885 56.5428 28.5229 57.3111 28.5229C57.9575 28.5229 58.4556 28.2625 58.8053 27.7416C59.155 27.2208 59.3299 26.4786 59.3299 25.5151C59.3299 24.5463 59.155 23.8146 58.8053 23.3198C58.4609 22.8198 57.9522 22.5698 57.2793 22.5698Z" fill="white"/>
<path d="M67.6297 30.0229C66.517 30.0229 65.6533 29.6297 65.0387 28.8432H64.9274C65.0016 29.5724 65.0387 30.0151 65.0387 30.1713V33.7104H63.1709V21.226H64.681C64.7234 21.3875 64.8109 21.7729 64.9433 22.3823H65.0387C65.6216 21.5073 66.4958 21.0698 67.6615 21.0698C68.7583 21.0698 69.6114 21.4604 70.2208 22.2416C70.8354 23.0229 71.1427 24.1192 71.1427 25.5307C71.1427 26.9422 70.8301 28.0437 70.2049 28.8354C69.5849 29.6271 68.7266 30.0229 67.6297 30.0229ZM67.1767 22.5698C66.4349 22.5698 65.8918 22.7833 65.5474 23.2104C65.2083 23.6375 65.0387 24.3198 65.0387 25.2573V25.5307C65.0387 26.5828 65.2083 27.3458 65.5474 27.8198C65.8865 28.2885 66.4402 28.5229 67.2085 28.5229C67.8549 28.5229 68.353 28.2625 68.7027 27.7416C69.0524 27.2208 69.2273 26.4786 69.2273 25.5151C69.2273 24.5463 69.0524 23.8146 68.7027 23.3198C68.3583 22.8198 67.8496 22.5698 67.1767 22.5698Z" fill="white"/>
<path d="M78.0199 23.6713H82.2959V29.4057C81.5965 29.6297 80.9236 29.7885 80.2771 29.8823C79.636 29.976 78.9419 30.0229 78.1948 30.0229C76.4356 30.0229 75.0792 29.5125 74.1254 28.4916C73.1717 27.4656 72.6948 26.0203 72.6948 24.1557C72.6948 22.3172 73.2326 20.8797 74.3082 19.8432C75.3839 18.8015 76.8648 18.2807 78.7511 18.2807C79.9645 18.2807 81.1143 18.5099 82.2006 18.9682L81.5329 20.5229C80.5898 20.0958 79.6466 19.8823 78.7035 19.8823C77.4636 19.8823 76.4833 20.2651 75.7627 21.0307C75.0421 21.7963 74.6818 22.8432 74.6818 24.1713C74.6818 25.5672 75.005 26.6297 75.6514 27.3588C76.3032 28.0828 77.2384 28.4448 78.4571 28.4448C79.0717 28.4448 79.7287 28.3692 80.4282 28.2182V25.2729H78.0199V23.6713Z" fill="white"/>
<path d="M90.1507 29.8666L89.7772 28.6635H89.7136C89.2897 29.1896 88.8632 29.5489 88.434 29.7416C88.0048 29.9291 87.4537 30.0229 86.7808 30.0229C85.9171 30.0229 85.2415 29.7937 84.7541 29.3354C84.2719 28.8771 84.0308 28.2286 84.0308 27.3901C84.0308 26.4994 84.3673 25.8276 85.0402 25.3744C85.7131 24.9213 86.7384 24.6739 88.116 24.6323L89.6341 24.5854V24.1244C89.6341 23.5724 89.5016 23.1609 89.2367 22.8901C88.9771 22.614 88.5717 22.476 88.0207 22.476C87.5703 22.476 87.1385 22.5411 86.7252 22.6713C86.3119 22.8015 85.9145 22.9552 85.533 23.1323L84.9289 21.8198C85.4058 21.575 85.9277 21.3901 86.4947 21.2651C87.0616 21.1349 87.5968 21.0698 88.1002 21.0698C89.2182 21.0698 90.0606 21.3093 90.6276 21.7885C91.1999 22.2677 91.486 23.0203 91.486 24.0463V29.8666H90.1507ZM87.3689 28.6166C88.0472 28.6166 88.5903 28.4317 88.9983 28.0619C89.4116 27.6869 89.6182 27.1635 89.6182 26.4916V25.7416L88.4896 25.7885C87.61 25.8198 86.9689 25.9656 86.5662 26.226C86.1688 26.4812 85.9701 26.8744 85.9701 27.4057C85.9701 27.7911 86.0867 28.0906 86.3198 28.3041C86.553 28.5125 86.9027 28.6166 87.3689 28.6166Z" fill="white"/>
<path d="M95.7165 29.8666H93.8487V17.7104H95.7165V29.8666Z" fill="white"/>
<path d="M100.019 29.8666H98.1508V17.7104H100.019V29.8666Z" fill="white"/>
<path d="M106.292 30.0229C104.925 30.0229 103.854 29.6323 103.081 28.851C102.312 28.0646 101.928 26.9838 101.928 25.6088C101.928 24.1974 102.286 23.088 103.001 22.2807C103.717 21.4734 104.699 21.0698 105.95 21.0698C107.11 21.0698 108.027 21.4161 108.7 22.1088C109.373 22.8015 109.709 23.7547 109.709 24.9682V25.9604H103.852C103.878 26.7989 104.109 27.4448 104.543 27.8979C104.978 28.3458 105.59 28.5698 106.379 28.5698C106.898 28.5698 107.381 28.5229 107.826 28.4291C108.276 28.3302 108.758 28.1687 109.272 27.9448V29.4369C108.817 29.6505 108.356 29.8015 107.889 29.8901C107.423 29.9786 106.89 30.0229 106.292 30.0229ZM105.95 22.4604C105.357 22.4604 104.88 22.6453 104.519 23.0151C104.164 23.3849 103.952 23.9239 103.884 24.6323H107.873C107.863 23.9187 107.688 23.3797 107.349 23.0151C107.01 22.6453 106.543 22.4604 105.95 22.4604Z" fill="white"/>
<path d="M116.046 21.0698C116.422 21.0698 116.732 21.0958 116.976 21.1479L116.793 22.8588C116.528 22.7963 116.253 22.7651 115.967 22.7651C115.22 22.7651 114.613 23.0047 114.147 23.4838C113.686 23.963 113.455 24.5854 113.455 25.351V29.8666H111.587V21.226H113.05L113.296 22.7494H113.391C113.683 22.2338 114.062 21.825 114.528 21.5229C115 21.2208 115.506 21.0698 116.046 21.0698Z" fill="white"/>
<path d="M117.034 21.226H119.069L120.857 26.1244C121.127 26.8224 121.307 27.4786 121.397 28.0932H121.461C121.509 27.8067 121.596 27.4604 121.723 27.0541C121.85 26.6427 122.523 24.7 123.742 21.226H125.761L122.001 31.0151C121.318 32.8119 120.179 33.7104 118.584 33.7104C118.17 33.7104 117.768 33.6661 117.376 33.5776V32.1244C117.656 32.1869 117.977 32.2182 118.337 32.2182C119.238 32.2182 119.871 31.7052 120.237 30.6791L120.563 29.8666L117.034 21.226Z" fill="white"/>
<path d="M47.3462 11.2701C47.3462 12.1998 47.1091 12.9224 46.6349 13.438C46.1633 13.9537 45.4943 14.2115 44.628 14.2115C43.7511 14.2115 43.0768 13.9563 42.6052 13.4459C42.1363 12.9328 41.9019 12.205 41.9019 11.2623C41.9019 10.3196 42.1376 9.5956 42.6092 9.09039C43.0835 8.58518 43.759 8.33258 44.6359 8.33258C45.4996 8.33258 46.1673 8.58909 46.6388 9.10211C47.1104 9.61513 47.3462 10.3378 47.3462 11.2701ZM42.9112 11.2701C42.9112 11.9732 43.0556 12.5071 43.3444 12.8716C43.6332 13.2336 44.061 13.4146 44.628 13.4146C45.1923 13.4146 45.6175 13.2349 45.9036 12.8755C46.1924 12.5162 46.3368 11.981 46.3368 11.2701C46.3368 10.5696 46.1937 10.0383 45.9076 9.67633C45.6241 9.31435 45.2003 9.13336 44.6359 9.13336C44.0663 9.13336 43.6358 9.31435 43.3444 9.67633C43.0556 10.0383 42.9112 10.5696 42.9112 11.2701Z" fill="white"/>
<path d="M50.6009 14.1334H49.6511V9.22321H47.9423V8.42242H52.3097V9.22321H50.6009V14.1334Z" fill="white"/>
<path d="M57.6626 14.1334H56.546L54.1536 11.2388V14.1334H53.2038V8.42242H54.1536V11.188L56.5062 8.42242H57.5474L55.2027 11.1802L57.6626 14.1334Z" fill="white"/>
<path d="M62.2804 10.149C62.2804 10.7453 62.0817 11.2024 61.6843 11.5201C61.2869 11.8378 60.7213 11.9966 59.9874 11.9966H59.3834V14.1334H58.4336V8.42242H60.1066C60.8325 8.42242 61.3757 8.56826 61.736 8.85992C62.0989 9.15159 62.2804 9.58128 62.2804 10.149ZM59.3834 11.2115H59.8881C60.3755 11.2115 60.7332 11.1282 60.961 10.9615C61.1889 10.7948 61.3028 10.5344 61.3028 10.1802C61.3028 9.85211 61.2008 9.60732 60.9968 9.44586C60.7928 9.2844 60.4749 9.20367 60.043 9.20367H59.3834V11.2115Z" fill="white"/>
<path d="M68.599 11.2701C68.599 12.1998 68.3619 12.9224 67.8877 13.438C67.4161 13.9537 66.7471 14.2115 65.8808 14.2115C65.0039 14.2115 64.3296 13.9563 63.8581 13.4459C63.3891 12.9328 63.1547 12.205 63.1547 11.2623C63.1547 10.3196 63.3905 9.5956 63.862 9.09039C64.3363 8.58518 65.0118 8.33258 65.8888 8.33258C66.7524 8.33258 67.4201 8.58909 67.8916 9.10211C68.3632 9.61513 68.599 10.3378 68.599 11.2701ZM64.1641 11.2701C64.1641 11.9732 64.3084 12.5071 64.5972 12.8716C64.886 13.2336 65.3139 13.4146 65.8808 13.4146C66.4451 13.4146 66.8703 13.2349 67.1565 12.8755C67.4452 12.5162 67.5896 11.981 67.5896 11.2701C67.5896 10.5696 67.4466 10.0383 67.1604 9.67633C66.877 9.31435 66.4531 9.13336 65.8888 9.13336C65.3192 9.13336 64.8886 9.31435 64.5972 9.67633C64.3084 10.0383 64.1641 10.5696 64.1641 11.2701Z" fill="white"/>
<path d="M69.8468 8.42242H70.7171V11.3912C70.7171 11.7011 70.7092 12.0149 70.6933 12.3326C70.6774 12.6477 70.6655 12.8612 70.6575 12.9732H70.6933L73.6619 8.42242H74.7706V14.1334H73.8963V11.188C73.8963 10.7375 73.9215 10.1907 73.9718 9.54742H73.94L70.9596 14.1334H69.8468V8.42242ZM72.3385 7.96539C71.7769 7.96539 71.3649 7.86643 71.1026 7.66852C70.843 7.468 70.6986 7.13466 70.6695 6.66852H71.5159C71.5318 6.85602 71.5676 7.00185 71.6232 7.10602C71.6815 7.21018 71.7636 7.28571 71.8696 7.33258C71.9782 7.37685 72.1425 7.39899 72.3624 7.39899C72.622 7.39899 72.8194 7.343 72.9545 7.23102C73.0896 7.11643 73.1717 6.92893 73.2009 6.66852H74.0632C74.0235 7.11643 73.8632 7.44456 73.5824 7.65289C73.3015 7.86123 72.8869 7.96539 72.3385 7.96539Z" fill="white"/>
<path d="M78.2995 14.1334H77.3497V9.22321H75.6409V8.42242H80.0083V9.22321H78.2995V14.1334Z" fill="white"/>
<path d="M84.1889 14.1334H80.9024V8.42242H84.1889V9.21149H81.8522V10.7662H84.0419V11.5474H81.8522V13.3404H84.1889V14.1334Z" fill="white"/>
<path d="M87.5628 8.42242H89.2875C90.0876 8.42242 90.6652 8.53701 91.0202 8.76617C91.3778 8.99534 91.5567 9.35732 91.5567 9.85211C91.5567 10.1854 91.4692 10.4628 91.2944 10.6841C91.1195 10.9055 90.8678 11.0448 90.5393 11.1021V11.1412C90.9473 11.2167 91.2467 11.3664 91.4374 11.5904C91.6308 11.8117 91.7275 12.1125 91.7275 12.4927C91.7275 13.0058 91.5447 13.4081 91.1791 13.6998C90.8162 13.9888 90.3102 14.1334 89.6611 14.1334H87.5628V8.42242ZM88.5126 10.7818H89.4266C89.824 10.7818 90.1141 10.7206 90.2969 10.5982C90.4797 10.4732 90.5711 10.2623 90.5711 9.96539C90.5711 9.69716 90.4718 9.50315 90.2731 9.38336C90.077 9.26357 89.7644 9.20367 89.3352 9.20367H88.5126V10.7818ZM88.5126 11.5396V13.3482H89.522C89.9194 13.3482 90.2188 13.274 90.4201 13.1255C90.6241 12.9745 90.7261 12.7375 90.7261 12.4146C90.7261 12.1177 90.6228 11.8977 90.4161 11.7545C90.2095 11.6112 89.8955 11.5396 89.4743 11.5396H88.5126Z" fill="white"/>
</g>
<defs>
<linearGradient id="paint0_linear_3_3575" x1="23.5157" y1="7.33331" x2="23.5157" y2="32.6666" gradientUnits="userSpaceOnUse">
<stop stop-color="#FB6361"/>
<stop offset="1" stop-color="#ED3E45"/>
</linearGradient>
<clipPath id="clip0_3_3575">
<rect width="137.273" height="40" fill="white" transform="translate(0.727539)"/>
</clipPath>
</defs>
</svg>
