<svg width="138" height="40" viewBox="0 0 138 40" fill="none" xmlns="http://www.w3.org/2000/svg">
<g clip-path="url(#clip0_3_3574)">
<path d="M0.727539 5.33333C0.727539 2.38781 3.15675 0 6.15334 0H132.574C135.571 0 138 2.38782 138 5.33333V34.6667C138 37.6122 135.571 40 132.574 40H6.15334C3.15675 40 0.727539 37.6122 0.727539 34.6667V5.33333Z" fill="black"/>
<path fill-rule="evenodd" clip-rule="evenodd" d="M0.727539 34.6667V5.33333C0.727539 2.38782 3.15675 0 6.15334 0H132.574C135.571 0 138 2.38781 138 5.33333V34.6667C138 37.6122 135.571 40 132.574 40H6.15334C3.15675 40 0.727539 37.6122 0.727539 34.6667ZM1.54141 34.6667V5.33333C1.54141 2.82964 3.60624 0.8 6.15334 0.8H132.574C135.122 0.8 137.186 2.82964 137.186 5.33333V34.6667C137.186 37.1704 135.122 39.2 132.574 39.2H6.15334C3.60624 39.2 1.54141 37.1704 1.54141 34.6667Z" fill="white" fill-opacity="0.3"/>
<path d="M31.7481 20.8147C31.7341 18.4703 32.8147 16.7035 34.9969 15.4006C33.7764 13.6819 31.9299 12.7366 29.4959 12.5544C27.1914 12.3756 24.6699 13.8744 23.7467 13.8744C22.771 13.8744 20.5399 12.6163 18.7843 12.6163C15.1613 12.6713 11.311 15.4556 11.311 21.1206C11.311 22.7947 11.6223 24.5238 12.2448 26.3044C13.0771 28.6488 16.0776 34.3928 19.2075 34.3C20.8441 34.2622 22.0017 33.1588 24.1314 33.1588C26.1982 33.1588 27.2683 34.3 29.0938 34.3C32.2517 34.2553 34.9654 29.0338 35.7557 26.6825C31.5208 24.7197 31.7481 20.935 31.7481 20.8147ZM28.0726 10.3303C29.8457 8.26095 29.6848 6.3772 29.6323 5.70001C28.0656 5.78939 26.2541 6.74845 25.2225 7.92751C24.0859 9.19251 23.418 10.7566 23.5614 12.52C25.254 12.6472 26.7997 11.7913 28.0726 10.3303Z" fill="white"/>
<path d="M50.8492 28.9461H49.0531L48.0692 25.8931H44.6493L43.7121 28.9461H41.9634L45.3516 18.5522H47.4444L50.8492 28.9461ZM47.7726 24.6122L46.8828 21.8981C46.7887 21.6209 46.6123 20.9679 46.3521 19.9401H46.3205C46.2169 20.3821 46.05 21.0351 45.8206 21.8981L44.9467 24.6122H47.7726Z" fill="white"/>
<path d="M59.5626 25.1067C59.5626 26.3813 59.2138 27.3888 58.5162 28.1285C57.8914 28.7869 57.1155 29.1157 56.1894 29.1157C55.1897 29.1157 54.4715 28.7611 54.0342 28.0519H54.0025V32H52.3163V23.9187C52.3163 23.1174 52.295 22.2949 52.2538 21.4514H53.7368L53.8309 22.6394H53.8625C54.4249 21.7443 55.2783 21.2976 56.4235 21.2976C57.3188 21.2976 58.0662 21.6467 58.6641 22.3457C59.2636 23.0455 59.5626 23.9656 59.5626 25.1067ZM57.8447 25.1676C57.8447 24.4381 57.6787 23.8367 57.3449 23.3634C56.9803 22.8698 56.4907 22.623 55.877 22.623C55.461 22.623 55.0829 22.7604 54.7452 23.0315C54.4067 23.3048 54.1852 23.6617 54.0816 24.1038C54.0294 24.31 54.0033 24.4787 54.0033 24.6115V25.8611C54.0033 26.4063 54.1726 26.8663 54.5111 27.242C54.8496 27.6177 55.2893 27.8051 55.8303 27.8051C56.4654 27.8051 56.9597 27.563 57.3133 27.0803C57.6676 26.5969 57.8447 25.9595 57.8447 25.1676Z" fill="white"/>
<path d="M68.2921 25.1067C68.2921 26.3813 67.9433 27.3888 67.2449 28.1285C66.6209 28.7869 65.845 29.1157 64.9189 29.1157C63.9192 29.1157 63.201 28.7611 62.7645 28.0519H62.7328V32H61.0466V23.9187C61.0466 23.1174 61.0253 22.2949 60.9841 21.4514H62.4671L62.5612 22.6394H62.5928C63.1544 21.7443 64.0078 21.2976 65.1538 21.2976C66.0483 21.2976 66.7957 21.6467 67.3952 22.3457C67.9923 23.0455 68.2921 23.9656 68.2921 25.1067ZM66.5743 25.1676C66.5743 24.4381 66.4074 23.8367 66.0736 23.3634C65.709 22.8698 65.221 22.623 64.6065 22.623C64.1897 22.623 63.8124 22.7604 63.4739 23.0315C63.1354 23.3048 62.9147 23.6617 62.8111 24.1038C62.7597 24.31 62.7328 24.4787 62.7328 24.6115V25.8611C62.7328 26.4063 62.9021 26.8663 63.239 27.242C63.5775 27.6169 64.0173 27.8051 64.5598 27.8051C65.1949 27.8051 65.6892 27.563 66.0428 27.0803C66.3971 26.5969 66.5743 25.9595 66.5743 25.1676Z" fill="white"/>
<path d="M78.052 26.0315C78.052 26.9156 77.7412 27.6349 77.1172 28.1902C76.4315 28.7971 75.4768 29.1001 74.2501 29.1001C73.1176 29.1001 72.2096 28.8846 71.5223 28.4527L71.913 27.0648C72.6533 27.5068 73.4656 27.7286 74.3506 27.7286C74.9857 27.7286 75.48 27.5865 75.8351 27.3038C76.1886 27.021 76.365 26.6415 76.365 26.1682C76.365 25.7464 76.2195 25.391 75.9276 25.1028C75.6374 24.8146 75.1526 24.5467 74.4755 24.2991C72.6327 23.6204 71.7121 22.6262 71.7121 21.3187C71.7121 20.4643 72.0348 19.7637 72.681 19.2185C73.3248 18.6726 74.1837 18.4 75.2577 18.4C76.2155 18.4 77.0112 18.5648 77.6463 18.8936L77.2247 20.2511C76.6315 19.9324 75.9609 19.7731 75.2103 19.7731C74.6171 19.7731 74.1536 19.9176 73.8215 20.205C73.5407 20.4619 73.3999 20.7751 73.3999 21.1461C73.3999 21.5569 73.5605 21.8967 73.8832 22.1638C74.1639 22.4106 74.6741 22.6777 75.4143 22.9659C76.3199 23.326 76.9851 23.747 77.413 24.2296C77.8393 24.7107 78.052 25.3129 78.052 26.0315Z" fill="white"/>
<path d="M83.6268 22.7012H81.7682V26.3401C81.7682 27.2656 82.0956 27.7279 82.7521 27.7279C83.0534 27.7279 83.3034 27.7022 83.5011 27.6506L83.5477 28.9151C83.2156 29.0377 82.7782 29.0994 82.2364 29.0994C81.5705 29.0994 81.0501 28.8987 80.6744 28.498C80.3003 28.0966 80.112 27.4233 80.112 26.4775V22.6997H79.0048V21.45H80.112V20.0778L81.7682 19.5841V21.45H83.6268V22.7012Z" fill="white"/>
<path d="M92.0129 25.1371C92.0129 26.2891 91.6791 27.235 91.0132 27.9746C90.3148 28.7361 89.3879 29.1157 88.2324 29.1157C87.1188 29.1157 86.2322 28.7509 85.571 28.0215C84.9098 27.292 84.5792 26.3711 84.5792 25.2613C84.5792 24.0999 84.9193 23.1486 85.6018 22.409C86.2828 21.6686 87.2018 21.2984 88.3573 21.2984C89.4709 21.2984 90.367 21.6631 91.0432 22.3934C91.6902 23.1018 92.0129 24.0163 92.0129 25.1371ZM90.2634 25.191C90.2634 24.4998 90.1139 23.907 89.811 23.4126C89.4575 22.8143 88.9521 22.516 88.2972 22.516C87.6194 22.516 87.1045 22.8151 86.751 23.4126C86.4481 23.9078 86.2986 24.51 86.2986 25.2223C86.2986 25.9135 86.4481 26.5063 86.751 26.9999C87.1156 27.5981 87.625 27.8965 88.2822 27.8965C88.926 27.8965 89.4314 27.5919 89.796 26.9843C90.1068 26.4805 90.2634 25.8814 90.2634 25.191Z" fill="white"/>
<path d="M97.4938 22.9159C97.3269 22.8854 97.1489 22.8698 96.9623 22.8698C96.3691 22.8698 95.9104 23.0908 95.5877 23.5337C95.3069 23.9242 95.1661 24.4178 95.1661 25.0137V28.9462H93.4807L93.4965 23.8117C93.4965 22.9479 93.4751 22.1614 93.4332 21.4522H94.9019L94.9636 22.8862H95.0103C95.1883 22.3934 95.469 21.9966 95.8534 21.699C96.2291 21.4311 96.6348 21.2976 97.0722 21.2976C97.228 21.2976 97.3688 21.3085 97.4938 21.328V22.9159Z" fill="white"/>
<path d="M105.035 24.8443C105.035 25.1426 105.015 25.3941 104.973 25.5995H99.9143C99.9341 26.34 100.178 26.9062 100.648 27.2967C101.075 27.6458 101.626 27.8208 102.303 27.8208C103.052 27.8208 103.735 27.7028 104.35 27.4662L104.614 28.6221C103.896 28.9314 103.048 29.0853 102.07 29.0853C100.893 29.0853 99.9689 28.7432 99.2966 28.0598C98.6259 27.3764 98.2898 26.4587 98.2898 25.3074C98.2898 24.1773 98.6022 23.2361 99.2278 22.4856C99.8827 21.6842 100.768 21.2836 101.881 21.2836C102.975 21.2836 103.803 21.6842 104.366 22.4856C104.811 23.1221 105.035 23.9094 105.035 24.8443ZM103.427 24.4124C103.438 23.9188 103.328 23.4923 103.099 23.1323C102.807 22.6691 102.359 22.4379 101.756 22.4379C101.204 22.4379 100.756 22.6636 100.413 23.1166C100.133 23.4767 99.9657 23.9086 99.9143 24.4116H103.427V24.4124Z" fill="white"/>
<path d="M43.7016 11.9875H44.5706C45.4099 11.9875 45.9016 12.3583 45.9016 12.9833V12.9916C45.9016 13.5708 45.3845 13.95 44.596 13.95C43.7906 13.95 43.2777 13.6375 43.2099 13.0833L43.2057 13.05H42.2773L42.2816 13.1C42.3452 14.0916 43.2438 14.7666 44.596 14.7666C45.9058 14.7666 46.8723 14.025 46.8723 13.0333V13.025C46.8723 12.2166 46.3679 11.6458 45.5498 11.5458V11.5125C46.228 11.3583 46.6858 10.8 46.6858 10.1333V10.125C46.6858 9.1958 45.8465 8.55414 44.6172 8.55414C43.3371 8.55414 42.502 9.17497 42.4384 10.1916L42.4342 10.25H43.3455L43.3498 10.1916C43.4218 9.67497 43.8669 9.3708 44.5875 9.3708C45.3209 9.3708 45.7448 9.69164 45.7448 10.225V10.2333C45.7448 10.8083 45.2743 11.2041 44.5452 11.2041H43.7016V11.9875Z" fill="white"/>
<path d="M49.9425 14.7458C50.5359 14.7458 51.0488 14.4458 51.3074 13.975H51.3286V14.6666H52.2442V11.6458C52.2442 10.7666 51.5533 10.2 50.4639 10.2C49.366 10.2 48.7005 10.7791 48.6369 11.5333L48.6327 11.5791H49.4974L49.5059 11.5416C49.5822 11.1916 49.9086 10.9458 50.4384 10.9458C51.0064 10.9458 51.3286 11.2375 51.3286 11.7208V12.05L50.112 12.1208C49.0565 12.1833 48.4546 12.65 48.4546 13.4125V13.4208C48.4546 14.2083 49.0523 14.7458 49.9425 14.7458ZM49.3787 13.4V13.3916C49.3787 13.0208 49.6839 12.7833 50.235 12.75L51.3286 12.6833V13.025C51.3286 13.5958 50.8369 14.025 50.1926 14.025C49.7009 14.025 49.3787 13.7833 49.3787 13.4Z" fill="white"/>
<path d="M57.1201 11V10.2833H54.1656V14.6666H55.0812V11H57.1201Z" fill="white"/>
<path d="M58.8423 16.125H59.7579V13.9291H59.7791C60.0419 14.4375 60.5548 14.7541 61.1864 14.7541C62.3055 14.7541 63.0388 13.875 63.0388 12.4791V12.475C63.0388 11.075 62.3097 10.2 61.1737 10.2C60.5379 10.2 60.0462 10.5166 59.7791 11.0375H59.7579V10.2833H58.8423V16.125ZM60.9363 13.9791C60.2454 13.9791 59.7537 13.3875 59.7537 12.4791V12.475C59.7537 11.5625 60.2411 10.9708 60.9363 10.9708C61.6569 10.9708 62.1063 11.5416 62.1063 12.475V12.4791C62.1063 13.4041 61.6569 13.9791 60.9363 13.9791Z" fill="white"/>
<path d="M65.1891 16.1291C66.0624 16.1291 66.5286 15.7791 66.8593 14.8708L68.5209 10.2833H67.5544L66.4311 13.85H66.4015L65.2782 10.2833H64.2863L65.9098 14.6708L65.8335 14.8791C65.6809 15.3041 65.4435 15.4166 65.0111 15.4166C64.8882 15.4166 64.7822 15.4 64.7101 15.3833V16.0875C64.8204 16.1083 65.0111 16.1291 65.1891 16.1291Z" fill="white"/>
<path d="M71.6674 14.7541C72.761 14.7541 73.4859 14.2083 73.4859 13.3916V13.3833C73.4859 12.8708 73.1637 12.5208 72.5745 12.4041V12.3708C73.0535 12.2625 73.3629 11.8916 73.3629 11.4208V11.4125C73.3629 10.6625 72.7356 10.2 71.7098 10.2C70.7051 10.2 70.0481 10.6666 69.9421 11.4458L69.9379 11.4791H70.8111L70.8154 11.45C70.8832 11.1166 71.2181 10.9125 71.697 10.9125C72.1803 10.9125 72.4685 11.1333 72.4685 11.5083V11.5166C72.4685 11.9083 72.193 12.1083 71.6547 12.1083H71.0146V12.7625H71.6589C72.2778 12.7625 72.5745 12.9625 72.5745 13.3833V13.3916C72.5745 13.7916 72.2269 14.0375 71.6631 14.0375C71.1587 14.0375 70.8281 13.8458 70.7263 13.4916L70.7136 13.45H69.815L69.8192 13.4875C69.9082 14.2625 70.6246 14.7541 71.6674 14.7541Z" fill="white"/>
<path d="M75.2462 14.6666H76.1491L78.1965 11.5875H78.2346V14.6666H79.146V10.2833H78.2431L76.1957 13.35H76.1533V10.2833H75.2462V14.6666Z" fill="white"/>
<path d="M84.4755 10.2833H80.7664V11H82.161V14.6666H83.0809V11H84.4755V10.2833Z" fill="white"/>
<path d="M87.9187 14.7541C88.9996 14.7541 89.6905 14.1208 89.8304 13.425L89.8431 13.3791H88.9699L88.9572 13.4125C88.8427 13.7416 88.4824 14.0166 87.9399 14.0166C87.2108 14.0166 86.7487 13.5333 86.7318 12.7041H89.8898V12.4C89.8898 11.0833 89.1225 10.2 87.872 10.2C86.6216 10.2 85.8162 11.1166 85.8162 12.4875V12.4916C85.8162 13.875 86.6088 14.7541 87.9187 14.7541ZM87.8763 10.9375C88.474 10.9375 88.9106 11.3083 88.9826 12.0666H86.7445C86.8293 11.3333 87.2828 10.9375 87.8763 10.9375Z" fill="white"/>
<path d="M94.3515 14.6666H96.4031C97.3696 14.6666 97.9715 14.175 97.9715 13.4083V13.4C97.9715 12.8625 97.59 12.4708 97.0135 12.3958V12.3625C97.4416 12.2833 97.7723 11.8708 97.7723 11.4166V11.4083C97.7723 10.7125 97.2466 10.2833 96.3777 10.2833H94.3515V14.6666ZM95.2586 12.0916V10.95H96.1869C96.6277 10.95 96.8651 11.1458 96.8651 11.5083V11.5166C96.8651 11.9041 96.6108 12.0916 96.0936 12.0916H95.2586ZM95.2586 14V12.7458H96.1276C96.7295 12.7458 97.0304 12.9416 97.0304 13.3625V13.3708C97.0304 13.7875 96.7507 14 96.2335 14H95.2586Z" fill="white"/>
</g>
<defs>
<clipPath id="clip0_3_3574">
<rect width="137.273" height="40" fill="white" transform="translate(0.727539)"/>
</clipPath>
</defs>
</svg>
