<svg width="32" height="32" viewBox="0 0 32 32" fill="none" xmlns="http://www.w3.org/2000/svg">
<path fill-rule="evenodd" clip-rule="evenodd" d="M10 2C5.58172 2 2 5.58172 2 10V22C2 26.4183 5.58172 30 10 30H22C26.4183 30 30 26.4183 30 22V10C30 5.58172 26.4183 2 22 2H10ZM22.0607 14.5607C22.6464 13.9749 22.6464 13.0251 22.0607 12.4393C21.4749 11.8536 20.5251 11.8536 19.9393 12.4393L15 17.3787L12.5607 14.9393C11.9749 14.3536 11.0251 14.3536 10.4393 14.9393C9.85355 15.5251 9.85355 16.4749 10.4393 17.0607L13.5858 20.2071C14.3668 20.9882 15.6332 20.9882 16.4142 20.2071L22.0607 14.5607Z" fill="#007AFF"/>
</svg>
