<svg width="138" height="40" viewBox="0 0 138 40" fill="none" xmlns="http://www.w3.org/2000/svg">
<g clip-path="url(#clip0_3_3573)">
<path d="M0.727539 5.33333C0.727539 2.38781 3.15675 0 6.15334 0H132.574C135.571 0 138 2.38782 138 5.33333V34.6667C138 37.6122 135.571 40 132.574 40H6.15334C3.15675 40 0.727539 37.6122 0.727539 34.6667V5.33333Z" fill="black"/>
<path fill-rule="evenodd" clip-rule="evenodd" d="M0.727539 34.6667V5.33333C0.727539 2.38782 3.15675 0 6.15334 0H132.574C135.571 0 138 2.38781 138 5.33333V34.6667C138 37.6122 135.571 40 132.574 40H6.15334C3.15675 40 0.727539 37.6122 0.727539 34.6667ZM1.54141 34.6667V5.33333C1.54141 2.82964 3.60624 0.8 6.15334 0.8H132.574C135.122 0.8 137.186 2.82964 137.186 5.33333V34.6667C137.186 37.1704 135.122 39.2 132.574 39.2H6.15334C3.60624 39.2 1.54141 37.1704 1.54141 34.6667Z" fill="white" fill-opacity="0.3"/>
<path d="M70.2823 21.7305C67.8394 21.7305 65.8211 23.6058 65.8211 26.1769C65.8211 28.7271 67.8183 30.6234 70.2825 30.6234C72.7466 30.6234 74.7435 28.7481 74.7435 26.1769C74.7435 23.6058 72.7466 21.7305 70.2823 21.7305ZM70.2823 28.854C68.9436 28.854 67.7759 27.7368 67.7759 26.1571C67.7759 24.5555 68.9446 23.4602 70.2823 23.4602C71.62 23.4602 72.7887 24.5555 72.7887 26.1571C72.7887 27.7368 71.62 28.854 70.2823 28.854ZM60.5739 21.7305C58.1096 21.7305 56.1124 23.6058 56.1124 26.1769C56.1124 28.7271 58.1096 30.6234 60.5739 30.6234C63.0379 30.6234 65.0351 28.7481 65.0351 26.1769C65.0351 23.6058 63.0379 21.7305 60.5736 21.7305H60.5739ZM60.5739 28.854C59.235 28.854 58.0675 27.7368 58.0675 26.1571C58.0675 24.5555 59.2361 23.4602 60.5739 23.4602C61.9125 23.4602 63.0802 24.5555 63.0802 26.1571C63.0802 27.7368 61.9325 28.854 60.5739 28.854ZM49.0383 23.1004V24.9757H53.5416C53.4137 26.0293 53.0536 26.8089 52.5221 27.3362C51.8638 27.9892 50.844 28.7061 49.0383 28.7061C46.2549 28.7061 44.11 26.4725 44.11 23.7117C44.11 20.9508 46.256 18.675 49.0383 18.675C50.546 18.675 51.6302 19.2653 52.4374 20.0242L53.7751 18.696C52.6488 17.6217 51.1411 16.8 49.0383 16.8C45.2351 16.8 42.0483 19.8973 42.0483 23.6697C42.0483 27.4423 45.2351 30.5396 49.0383 30.5396C51.0987 30.5396 52.6288 29.8656 53.8607 28.6004C55.114 27.3572 55.4965 25.6077 55.4965 24.196C55.4965 23.7537 55.4543 23.3531 55.3899 23.0158L49.0383 23.1004ZM96.2425 24.5544C95.881 23.5638 94.7345 21.7305 92.4393 21.7305C90.1444 21.7305 88.254 23.522 88.254 26.1769C88.254 28.6632 90.1444 30.6234 92.6519 30.6234C94.6912 30.6234 95.8599 29.3801 96.3481 28.6632L94.8403 27.6519C94.33 28.3898 93.6505 28.8739 92.6519 28.8739C91.6533 28.8739 90.9527 28.4315 90.5059 27.5249L96.4328 25.0597L96.2425 24.5544ZM90.2088 26.0512C90.1667 24.3437 91.5477 23.459 92.524 23.459C93.3102 23.459 93.9476 23.8384 94.1809 24.4076L90.2088 26.0512ZM85.3864 30.3287H87.3412V17.3051H85.3864V30.3287ZM82.2005 22.7211H82.137C81.6911 22.1938 80.8628 21.7305 79.7998 21.7305C77.569 21.7305 75.5509 23.6907 75.5509 26.1769C75.5509 28.6632 77.5902 30.6026 79.7998 30.6026C80.8616 30.6026 81.6902 30.139 82.137 29.5908H82.2005V30.223C82.2005 31.9305 81.2864 32.836 79.8209 32.836C78.6311 32.836 77.8873 31.9723 77.5902 31.2554L75.8912 31.9723C76.3792 33.1525 77.6758 34.6065 79.8209 34.6065C82.1149 34.6065 84.0486 33.2575 84.0486 29.9914V22.0042H82.2005V22.7211ZM79.9698 28.854C78.6311 28.854 77.5058 27.7368 77.5058 26.1781C77.5058 24.6194 78.6321 23.4809 79.9698 23.4809C81.2875 23.4809 82.3494 24.6194 82.3494 26.1781C82.3485 27.7158 81.2864 28.854 79.9698 28.854ZM105.356 17.3053H100.683V30.3287H102.637V25.397H105.356C107.523 25.397 109.647 23.8372 109.647 21.3512C109.647 18.8649 107.523 17.3051 105.356 17.3051V17.3053ZM105.419 23.5859H102.657V19.1173H105.419C106.864 19.1173 107.714 20.3186 107.714 21.3509C107.693 22.3625 106.865 23.5859 105.419 23.5859ZM117.444 21.7095C116.042 21.7095 114.576 22.3208 113.982 23.7117L115.703 24.4286C116.086 23.7117 116.765 23.48 117.488 23.48C118.507 23.48 119.527 24.091 119.548 25.1654V25.2923C119.187 25.0816 118.444 24.786 117.509 24.786C115.64 24.786 113.748 25.8186 113.748 27.7158C113.748 29.465 115.278 30.5816 116.977 30.5816C118.295 30.5816 119.017 29.9914 119.463 29.2964H119.526V30.3079H121.416V25.313C121.395 23.0164 119.675 21.7093 117.444 21.7093V21.7095ZM117.211 28.833C116.574 28.833 115.681 28.5165 115.681 27.7377C115.681 26.7261 116.785 26.3468 117.741 26.3468C118.591 26.3468 118.995 26.5364 119.526 26.7891C119.377 27.9904 118.336 28.833 117.211 28.833ZM128.236 22.0053L126.005 27.6318H125.942L123.627 22.0051H121.524L125.008 29.8864L123.032 34.291H125.071L130.403 22.0051H128.236L128.236 22.0053ZM110.731 30.3287H112.686V17.3051H110.731V30.3287Z" fill="white"/>
<path d="M47.9547 11.2011V13.135H47.1419V12H43.4046V13.135H42.5918V11.2011H43.1995C43.402 10.9223 43.5514 10.5216 43.6477 9.99896C43.7439 9.47131 43.792 8.89887 43.792 8.28162V6.65389H47.3546V11.2011H47.9547ZM46.5038 11.2011V7.45282H44.6352V8.42349C44.6352 8.981 44.5896 9.49869 44.4984 9.97656C44.4123 10.4544 44.2807 10.8626 44.1034 11.2011H46.5038Z" fill="white"/>
<path d="M51.4036 12.1195C50.8769 12.1195 50.3984 11.9975 49.9679 11.7536C49.5375 11.5047 49.1982 11.1662 48.95 10.7382C48.707 10.3101 48.5854 9.83967 48.5854 9.32696C48.5854 8.81425 48.707 8.34634 48.95 7.92322C49.1982 7.49514 49.5375 7.15665 49.9679 6.90776C50.3984 6.65887 50.8769 6.53442 51.4036 6.53442C51.9303 6.53442 52.4063 6.65887 52.8317 6.90776C53.2621 7.15665 53.6014 7.49514 53.8495 7.92322C54.0977 8.34634 54.2218 8.81425 54.2218 9.32696C54.2218 9.83967 54.0977 10.3101 53.8495 10.7382C53.6065 11.1662 53.2697 11.5047 52.8393 11.7536C52.4088 11.9975 51.9303 12.1195 51.4036 12.1195ZM51.4036 11.3206C51.7631 11.3206 52.0923 11.2359 52.3911 11.0667C52.6899 10.8974 52.9253 10.6635 53.0975 10.3648C53.2697 10.0612 53.3558 9.71522 53.3558 9.32696C53.3558 8.93869 53.2697 8.59522 53.0975 8.29656C52.9253 7.99291 52.6899 7.75647 52.3911 7.58722C52.0923 7.41798 51.7631 7.33336 51.4036 7.33336C51.044 7.33336 50.7149 7.41798 50.4161 7.58722C50.1173 7.75647 49.8793 7.99291 49.7021 8.29656C49.5299 8.59522 49.4438 8.93869 49.4438 9.32696C49.4438 9.71522 49.5299 10.0612 49.7021 10.3648C49.8793 10.6635 50.1173 10.8974 50.4161 11.0667C50.7149 11.2359 51.044 11.3206 51.4036 11.3206Z" fill="white"/>
<path d="M57.6872 12.1195C57.1606 12.1195 56.6795 11.9975 56.244 11.7536C55.8085 11.5097 55.4666 11.1737 55.2185 10.7456C54.9704 10.3175 54.8463 9.84465 54.8463 9.32696C54.8463 8.80927 54.9704 8.33638 55.2185 7.90829C55.4666 7.4802 55.8085 7.1442 56.244 6.90029C56.6795 6.65638 57.1606 6.53442 57.6872 6.53442C58.0974 6.53442 58.4696 6.60909 58.8039 6.75842C59.1432 6.90776 59.4419 7.12429 59.7002 7.40802L59.0925 7.98296C58.9052 7.76394 58.6975 7.60216 58.4696 7.49762C58.2418 7.38811 57.981 7.33336 57.6872 7.33336C57.3226 7.33336 56.9884 7.41549 56.6846 7.57976C56.3858 7.74402 56.1478 7.97798 55.9705 8.28162C55.7933 8.58029 55.7047 8.92874 55.7047 9.32696C55.7047 9.72518 55.7933 10.0761 55.9705 10.3798C56.1478 10.6784 56.3858 10.9099 56.6846 11.0742C56.9884 11.2384 57.3226 11.3206 57.6872 11.3206C58.2949 11.3206 58.8115 11.0717 59.2369 10.5739L59.8521 11.1563C59.5888 11.4599 59.2723 11.6964 58.9026 11.8656C58.5329 12.0349 58.1278 12.1195 57.6872 12.1195Z" fill="white"/>
<path d="M61.9034 7.45282H60.3842V6.65389H64.2734V7.45282H62.7542V12H61.9034V7.45282Z" fill="white"/>
<path d="M65.682 12.1195C65.4946 12.1195 65.3351 12.0871 65.2034 12.0224V11.2086C65.3705 11.2982 65.5225 11.343 65.6592 11.343C65.7959 11.343 65.9048 11.3181 65.9858 11.2683C66.0669 11.2135 66.1403 11.114 66.2061 10.9696L66.396 10.5814L64.5881 6.65389H65.5377L66.8062 9.61816H66.8518L68.1279 6.65389H69.0774L66.9961 11.1488C66.8442 11.4823 66.6594 11.7287 66.4416 11.888C66.2289 12.0423 65.9757 12.1195 65.682 12.1195Z" fill="white"/>
<path d="M69.815 6.65389H73.8637V12H73.013V7.45282H70.6658V12H69.815V6.65389Z" fill="white"/>
<path d="M75.1041 6.65389H75.9548V8.87149H78.4768V6.65389H79.3199V12H78.4768V9.66296H75.9548V12H75.1041V6.65389Z" fill="white"/>
<path d="M83.0343 12.1195C82.5076 12.1195 82.0291 11.9975 81.5986 11.7536C81.1682 11.5047 80.8289 11.1662 80.5808 10.7382C80.3377 10.3101 80.2162 9.83967 80.2162 9.32696C80.2162 8.81425 80.3377 8.34634 80.5808 7.92322C80.8289 7.49514 81.1682 7.15665 81.5986 6.90776C82.0291 6.65887 82.5076 6.53442 83.0343 6.53442C83.561 6.53442 84.037 6.65887 84.4624 6.90776C84.8928 7.15665 85.2321 7.49514 85.4803 7.92322C85.7284 8.34634 85.8525 8.81425 85.8525 9.32696C85.8525 9.83967 85.7284 10.3101 85.4803 10.7382C85.2372 11.1662 84.9004 11.5047 84.47 11.7536C84.0395 11.9975 83.561 12.1195 83.0343 12.1195ZM83.0343 11.3206C83.3939 11.3206 83.723 11.2359 84.0218 11.0667C84.3206 10.8974 84.5561 10.6635 84.7282 10.3648C84.9004 10.0612 84.9865 9.71522 84.9865 9.32696C84.9865 8.93869 84.9004 8.59522 84.7282 8.29656C84.5561 7.99291 84.3206 7.75647 84.0218 7.58722C83.723 7.41798 83.3939 7.33336 83.0343 7.33336C82.6748 7.33336 82.3456 7.41798 82.0468 7.58722C81.748 7.75647 81.51 7.99291 81.3328 8.29656C81.1606 8.59522 81.0745 8.93869 81.0745 9.32696C81.0745 9.71522 81.1606 10.0612 81.3328 10.3648C81.51 10.6635 81.748 10.8974 82.0468 11.0667C82.3456 11.2359 82.6748 11.3206 83.0343 11.3206Z" fill="white"/>
<path d="M88.605 6.65389H90.6484C90.937 6.65389 91.2029 6.71611 91.4459 6.84056C91.6941 6.965 91.8916 7.13674 92.0384 7.35576C92.1853 7.57478 92.2587 7.8162 92.2587 8.08002C92.2587 8.34385 92.1904 8.57282 92.0536 8.76696C91.922 8.96109 91.7473 9.10793 91.5295 9.20749V9.25229C91.803 9.34687 92.0233 9.50367 92.1904 9.72269C92.3625 9.94171 92.4486 10.1981 92.4486 10.4918C92.4486 10.7854 92.3701 11.0468 92.2132 11.2758C92.0612 11.5047 91.8536 11.6839 91.5903 11.8134C91.332 11.9378 91.0484 12 90.7395 12H88.605V6.65389ZM90.6104 8.89389C90.8534 8.89389 91.0484 8.81922 91.1953 8.66989C91.3472 8.52056 91.4232 8.34882 91.4232 8.15469C91.4232 7.96056 91.3497 7.79131 91.2029 7.64696C91.0611 7.49762 90.8737 7.42296 90.6408 7.42296H89.4558V8.89389H90.6104ZM90.7395 11.2235C90.9978 11.2235 91.2029 11.1438 91.3548 10.9846C91.5118 10.8253 91.5903 10.6411 91.5903 10.432C91.5903 10.218 91.5092 10.0338 91.3472 9.87949C91.1902 9.7202 90.9775 9.64056 90.7091 9.64056H89.4558V11.2235H90.7395Z" fill="white"/>
<path d="M29.6721 24.2886C32.9224 22.5181 35.3867 21.1692 35.599 21.0644C36.2783 20.7059 36.98 19.7573 35.599 19.0205C35.1531 18.7888 32.7524 17.4817 29.6721 15.7963L25.4023 20.0738L29.6719 24.2886H29.6721Z" fill="#FFD900"/>
<path d="M25.4022 20.0739L11.8062 33.6667C12.1251 33.7087 12.4854 33.6247 12.9104 33.3931C13.8022 32.909 23.2559 27.7874 29.6722 24.2895L25.4022 20.0739Z" fill="#F43249"/>
<path d="M25.4021 20.0738L29.6717 15.8171C29.6717 15.8171 13.8665 7.26089 12.9101 6.75603C12.5502 6.54374 12.1464 6.48098 11.7852 6.54374L25.4021 20.0736V20.0738Z" fill="#00EE76"/>
<path d="M25.4021 20.0739L11.7849 6.54407C11.2322 6.67075 10.7651 7.15508 10.7651 8.1452V32.065C10.7651 32.9718 11.1266 33.6248 11.8058 33.6876L25.4019 20.0737L25.4021 20.0739Z" fill="#00D3FF"/>
</g>
<defs>
<clipPath id="clip0_3_3573">
<rect width="137.273" height="40" fill="white" transform="translate(0.727539)"/>
</clipPath>
</defs>
</svg>
