<svg width="362" height="21" viewBox="0 0 362 21" fill="none" xmlns="http://www.w3.org/2000/svg">
<path fill-rule="evenodd" clip-rule="evenodd" d="M153.448 1.98257C136.474 2.66198 119.699 3.49738 103.341 4.41069C80.1844 5.70268 57.0367 7.03924 34.0286 9.15543C26.7862 9.8237 19.4314 10.2469 12.2342 11.0823C7.71628 11.6057 1.7256 12.3519 0.939405 12.5078C0.52819 12.5969 0.348791 12.7307 0.290822 12.7752C-0.11677 13.0871 -0.0423993 13.3877 0.187664 13.6216C0.280051 13.7218 0.513672 13.967 1.1622 14.0004C44.5336 16.2836 88.8833 11.8285 132.307 11.3607C207.612 10.5588 285.199 13.7442 359.907 20.6943C360.559 20.7499 361.193 20.4714 361.283 20.0593C361.392 19.6584 360.921 19.2685 360.269 19.2128C285.435 12.2517 207.721 9.05507 132.271 9.86814C91.8016 10.3025 50.5334 14.212 10.0078 12.8754C10.939 12.7641 11.852 12.6526 12.6853 12.5524C19.8535 11.7171 27.1775 11.305 34.3909 10.6367C57.3502 8.52052 80.4507 7.18398 103.577 5.90313C132.271 4.29927 162.215 2.91817 192.395 2.27217C203.192 2.37241 213.952 2.47269 224.713 2.59521C247.991 2.86252 271.378 3.64218 294.601 4.68914C301.594 5.01213 308.586 5.34624 315.579 5.63583C317.897 5.73607 323.876 6.0256 324.709 6.00333C325.741 5.98105 325.941 5.44648 325.959 5.35738C326.013 5.1569 325.977 4.87844 325.47 4.64454C325.415 4.61113 325.089 4.49968 324.365 4.43285C282.138 0.490045 237.049 -0.166987 192.432 0.779733C145.368 0.367631 98.1239 0.189344 51.1801 0C50.5081 0 49.9592 0.334185 49.9537 0.746286C49.9501 1.15839 50.4917 1.49258 51.1638 1.50372C85.1551 1.63738 119.319 1.77095 153.448 1.98257Z" fill="#007AFF"/>
</svg>
