<svg width="108" height="17" viewBox="0 0 108 17" fill="none" xmlns="http://www.w3.org/2000/svg">
<path d="M16.5883 8.5C16.5883 13.1944 12.8749 17 8.29412 17C3.71341 17 0 13.1944 0 8.5C0 3.80559 3.71341 0 8.29412 0C12.8748 0 16.5883 3.80559 16.5883 8.5Z" fill="#FFA45B"/>
<path d="M35.8119 8.5C35.8119 13.1944 32.0984 17 27.5178 17C22.9371 17 19.2236 13.1944 19.2236 8.5C19.2236 3.80559 22.9371 0 27.5178 0C32.0984 0 35.8119 3.80559 35.8119 8.5Z" fill="#69D9E2"/>
<path d="M38.4478 0H41.4149L45.3641 11.2192L49.4361 0H52.2191L46.3668 14.8471H44.1363L38.4478 0Z" fill="black"/>
<path d="M54.8545 7.86481C54.8545 6.67671 55.0454 5.59671 55.4275 4.62479C55.8092 3.65334 56.338 2.82493 57.0134 2.13984C57.6886 1.45494 58.4933 0.927123 59.428 0.556489C60.3622 0.18625 61.3888 0.000759319 62.5075 0.000759319C63.6397 -0.0129175 64.6766 0.158159 65.6178 0.514547C66.5591 0.871112 67.3707 1.39201 68.0529 2.07691C68.7352 2.76199 69.267 3.58675 69.6489 4.55144C70.0308 5.51613 70.2217 6.59273 70.2217 7.7809C70.2217 8.94138 70.0308 9.99695 69.6489 10.9474C69.267 11.8984 68.7352 12.7162 68.0529 13.401C67.3707 14.0861 66.5591 14.6209 65.6178 15.0053C64.6766 15.3896 63.6397 15.5888 62.5075 15.6029C61.3888 15.6029 60.3622 15.4175 59.428 15.0472C58.4933 14.677 57.6886 14.1526 57.0134 13.4745C56.338 12.7965 55.8092 11.9823 55.4275 11.0313C55.0454 10.0809 54.8545 9.02536 54.8545 7.86481ZM57.5556 7.69698C57.5556 8.49388 57.6748 9.2278 57.9137 9.89882C58.1522 10.5701 58.4899 11.1502 58.9266 11.6394C59.363 12.1289 59.8849 12.5134 60.4919 12.7928C61.0988 13.0726 61.7776 13.2122 62.528 13.2122C63.2781 13.2122 63.9603 13.0726 64.5743 12.7928C65.1881 12.5134 65.7132 12.1289 66.1499 11.6394C66.5863 11.1502 66.9238 10.5701 67.1625 9.89882C67.4012 9.2278 67.5212 8.49388 67.5212 7.69698C67.5212 6.95612 67.4012 6.26409 67.1625 5.62097C66.9238 4.97804 66.5863 4.41516 66.1499 3.93278C65.7132 3.45052 65.1881 3.07301 64.5743 2.80045C63.9603 2.52782 63.2781 2.39141 62.528 2.39141C61.7776 2.39141 61.0988 2.52782 60.4919 2.80045C59.8849 3.07301 59.363 3.45052 58.9266 3.93278C58.4899 4.41516 58.1522 4.97804 57.9137 5.62097C57.6748 6.26409 57.5556 6.95612 57.5556 7.69698Z" fill="black"/>
<path d="M72.8574 12.4565L80.5918 2.3906H72.9801V0H83.8049V2.3906L76.0082 12.4565H83.9276V14.8471H72.8574V12.4565Z" fill="black"/>
<path d="M89.1409 0H86.563V14.8471H89.1409V0Z" fill="black"/>
<path d="M91.7769 0H95.7054L99.5729 10.4013L103.481 0H107.369V14.8471H104.914V2.51647H104.873L100.473 14.8471H98.6725L94.2732 2.51647H94.2321V14.8471H91.7769V0Z" fill="black"/>
</svg>
