<svg width="137" height="137" viewBox="0 0 137 137" fill="none" xmlns="http://www.w3.org/2000/svg">
<path d="M46.5803 0C48.0936 0 49.3203 1.22675 49.3203 2.73999C49.3203 4.25331 48.0936 5.47999 46.5803 5.47999C45.0671 5.47999 43.8403 4.25331 43.8403 2.73999C43.8403 1.22675 45.0671 0 46.5803 0Z" fill="black"/>
<path d="M52.0598 0C53.5731 0 54.7998 1.22675 54.7998 2.73999C54.7998 4.25331 53.5731 5.47999 52.0598 5.47999C50.5466 5.47999 49.3198 4.25331 49.3198 2.73999C49.3198 1.22675 50.5466 0 52.0598 0Z" fill="black"/>
<path d="M68.4998 0C70.0131 0 71.2398 1.22675 71.2398 2.73999C71.2398 4.25331 70.0131 5.47999 68.4998 5.47999C66.9865 5.47999 65.7598 4.25331 65.7598 2.73999C65.7598 1.22675 66.9865 0 68.4998 0Z" fill="black"/>
<path d="M84.9402 0C86.4535 0 87.6802 1.22675 87.6802 2.73999C87.6802 4.25331 86.4535 5.47999 84.9402 5.47999C83.4269 5.47999 82.2002 4.25331 82.2002 2.73999C82.2002 1.22675 83.4269 0 84.9402 0Z" fill="black"/>
<path d="M90.4197 0C91.933 0 93.1597 1.22675 93.1597 2.73999C93.1597 4.25331 91.933 5.47999 90.4197 5.47999C88.9064 5.47999 87.6797 4.25331 87.6797 2.73999C87.6797 1.22675 88.9064 0 90.4197 0Z" fill="black"/>
<path d="M52.0598 5.47961C53.5731 5.47961 54.7998 6.70636 54.7998 8.21961C54.7998 9.73293 53.5731 10.9596 52.0598 10.9596C50.5466 10.9596 49.3198 9.73293 49.3198 8.21961C49.3198 6.70636 50.5466 5.47961 52.0598 5.47961Z" fill="black"/>
<path d="M57.5408 5.47961C59.0541 5.47961 60.2808 6.70636 60.2808 8.21961C60.2808 9.73293 59.0541 10.9596 57.5408 10.9596C56.0275 10.9596 54.8008 9.73293 54.8008 8.21961C54.8008 6.70636 56.0275 5.47961 57.5408 5.47961Z" fill="black"/>
<path d="M63.0203 5.47961C64.5336 5.47961 65.7603 6.70636 65.7603 8.21961C65.7603 9.73293 64.5336 10.9596 63.0203 10.9596C61.507 10.9596 60.2803 9.73293 60.2803 8.21961C60.2803 6.70636 61.507 5.47961 63.0203 5.47961Z" fill="black"/>
<path d="M68.4998 5.47961C70.0131 5.47961 71.2398 6.70636 71.2398 8.21961C71.2398 9.73293 70.0131 10.9596 68.4998 10.9596C66.9865 10.9596 65.7598 9.73293 65.7598 8.21961C65.7598 6.70636 66.9865 5.47961 68.4998 5.47961Z" fill="black"/>
<path d="M73.9807 5.47961C75.494 5.47961 76.7207 6.70636 76.7207 8.21961C76.7207 9.73293 75.494 10.9596 73.9807 10.9596C72.4675 10.9596 71.2407 9.73293 71.2407 8.21961C71.2407 6.70636 72.4675 5.47961 73.9807 5.47961Z" fill="black"/>
<path d="M79.4602 5.47961C80.9735 5.47961 82.2002 6.70636 82.2002 8.21961C82.2002 9.73293 80.9735 10.9596 79.4602 10.9596C77.947 10.9596 76.7202 9.73293 76.7202 8.21961C76.7202 6.70636 77.947 5.47961 79.4602 5.47961Z" fill="black"/>
<path d="M90.4197 5.47961C91.933 5.47961 93.1597 6.70636 93.1597 8.21961C93.1597 9.73293 91.933 10.9596 90.4197 10.9596C88.9064 10.9596 87.6797 9.73293 87.6797 8.21961C87.6797 6.70636 88.9064 5.47961 90.4197 5.47961Z" fill="black"/>
<path d="M46.5798 10.9603C48.0932 10.9603 49.3198 12.187 49.3198 13.7003C49.3198 15.2136 48.0932 16.4403 46.5798 16.4403C45.0666 16.4403 43.8398 15.2136 43.8398 13.7003C43.8398 12.187 45.0666 10.9603 46.5798 10.9603Z" fill="black"/>
<path d="M57.5408 10.9603C59.0541 10.9603 60.2808 12.187 60.2808 13.7003C60.2808 15.2136 59.0541 16.4403 57.5408 16.4403C56.0275 16.4403 54.8008 15.2136 54.8008 13.7003C54.8008 12.187 56.0275 10.9603 57.5408 10.9603Z" fill="black"/>
<path d="M79.4607 10.9603C80.974 10.9603 82.2007 12.187 82.2007 13.7003C82.2007 15.2136 80.974 16.4403 79.4607 16.4403C77.9475 16.4403 76.7207 15.2136 76.7207 13.7003C76.7207 12.187 77.9475 10.9603 79.4607 10.9603Z" fill="black"/>
<path d="M84.9397 10.9603C86.453 10.9603 87.6797 12.187 87.6797 13.7003C87.6797 15.2136 86.453 16.4403 84.9397 16.4403C83.4265 16.4403 82.1997 15.2136 82.1997 13.7003C82.1997 12.187 83.4265 10.9603 84.9397 10.9603Z" fill="black"/>
<path d="M90.4197 10.9603C91.933 10.9603 93.1597 12.187 93.1597 13.7003C93.1597 15.2136 91.933 16.4403 90.4197 16.4403C88.9064 16.4403 87.6797 15.2136 87.6797 13.7003C87.6797 12.187 88.9064 10.9603 90.4197 10.9603Z" fill="black"/>
<path d="M57.5408 16.4393C59.0541 16.4393 60.2808 17.6661 60.2808 19.1793C60.2808 20.6926 59.0541 21.9193 57.5408 21.9193C56.0275 21.9193 54.8008 20.6926 54.8008 19.1793C54.8008 17.6661 56.0275 16.4393 57.5408 16.4393Z" fill="black"/>
<path d="M79.4607 16.4393C80.974 16.4393 82.2007 17.6661 82.2007 19.1793C82.2007 20.6926 80.974 21.9193 79.4607 21.9193C77.9475 21.9193 76.7207 20.6926 76.7207 19.1793C76.7207 17.6661 77.9475 16.4393 79.4607 16.4393Z" fill="black"/>
<path d="M52.0608 21.921C53.5741 21.921 54.8008 23.1478 54.8008 24.661C54.8008 26.1743 53.5741 27.401 52.0608 27.401C50.5476 27.401 49.3208 26.1743 49.3208 24.661C49.3208 23.1478 50.5476 21.921 52.0608 21.921Z" fill="black"/>
<path d="M63.0203 21.921C64.5336 21.921 65.7603 23.1478 65.7603 24.661C65.7603 26.1743 64.5336 27.401 63.0203 27.401C61.507 27.401 60.2803 26.1743 60.2803 24.661C60.2803 23.1478 61.507 21.921 63.0203 21.921Z" fill="black"/>
<path d="M68.4998 21.921C70.0131 21.921 71.2398 23.1478 71.2398 24.661C71.2398 26.1743 70.0131 27.401 68.4998 27.401C66.9865 27.401 65.7598 26.1743 65.7598 24.661C65.7598 23.1478 66.9865 21.921 68.4998 21.921Z" fill="black"/>
<path d="M73.9807 21.921C75.494 21.921 76.7207 23.1478 76.7207 24.661C76.7207 26.1743 75.494 27.401 73.9807 27.401C72.4675 27.401 71.2407 26.1743 71.2407 24.661C71.2407 23.1478 72.4675 21.921 73.9807 21.921Z" fill="black"/>
<path d="M79.4607 21.921C80.974 21.921 82.2007 23.1478 82.2007 24.661C82.2007 26.1743 80.974 27.401 79.4607 27.401C77.9475 27.401 76.7207 26.1743 76.7207 24.661C76.7207 23.1478 77.9475 21.921 79.4607 21.921Z" fill="black"/>
<path d="M84.9402 21.921C86.4535 21.921 87.6802 23.1478 87.6802 24.661C87.6802 26.1743 86.4535 27.401 84.9402 27.401C83.4269 27.401 82.2002 26.1743 82.2002 24.661C82.2002 23.1478 83.4269 21.921 84.9402 21.921Z" fill="black"/>
<path d="M46.5803 27.4011C48.0936 27.4011 49.3203 28.6279 49.3203 30.1411C49.3203 31.6544 48.0936 32.8811 46.5803 32.8811C45.0671 32.8811 43.8403 31.6544 43.8403 30.1411C43.8403 28.6279 45.0671 27.4011 46.5803 27.4011Z" fill="black"/>
<path d="M63.0203 27.4006C64.5336 27.4006 65.7603 28.6274 65.7603 30.1406C65.7603 31.6539 64.5336 32.8806 63.0203 32.8806C61.507 32.8806 60.2803 31.6539 60.2803 30.1406C60.2803 28.6274 61.507 27.4006 63.0203 27.4006Z" fill="black"/>
<path d="M84.9402 27.4006C86.4535 27.4006 87.6802 28.6274 87.6802 30.1406C87.6802 31.6539 86.4535 32.8806 84.9402 32.8806C83.4269 32.8806 82.2002 31.6539 82.2002 30.1406C82.2002 28.6274 83.4269 27.4006 84.9402 27.4006Z" fill="black"/>
<path d="M46.5803 32.8807C48.0936 32.8807 49.3203 34.1075 49.3203 35.6207C49.3203 37.1341 48.0936 38.3607 46.5803 38.3607C45.0671 38.3607 43.8403 37.1341 43.8403 35.6207C43.8403 34.1075 45.0671 32.8807 46.5803 32.8807Z" fill="black"/>
<path d="M57.5408 32.8807C59.0541 32.8807 60.2808 34.1075 60.2808 35.6207C60.2808 37.1341 59.0541 38.3607 57.5408 38.3607C56.0275 38.3607 54.8008 37.1341 54.8008 35.6207C54.8008 34.1075 56.0275 32.8807 57.5408 32.8807Z" fill="black"/>
<path d="M68.5002 32.8807C70.0136 32.8807 71.2402 34.1075 71.2402 35.6207C71.2402 37.1341 70.0136 38.3607 68.5002 38.3607C66.987 38.3607 65.7603 37.1341 65.7603 35.6207C65.7603 34.1075 66.987 32.8807 68.5002 32.8807Z" fill="black"/>
<path d="M79.4607 32.8807C80.974 32.8807 82.2007 34.1075 82.2007 35.6207C82.2007 37.1341 80.974 38.3607 79.4607 38.3607C77.9475 38.3607 76.7207 37.1341 76.7207 35.6207C76.7207 34.1075 77.9475 32.8807 79.4607 32.8807Z" fill="black"/>
<path d="M90.4197 32.8807C91.933 32.8807 93.1597 34.1075 93.1597 35.6207C93.1597 37.1341 91.933 38.3607 90.4197 38.3607C88.9064 38.3607 87.6797 37.1341 87.6797 35.6207C87.6797 34.1075 88.9064 32.8807 90.4197 32.8807Z" fill="black"/>
<path d="M52.0608 38.3593C53.5741 38.3593 54.8008 39.5861 54.8008 41.0993C54.8008 42.6126 53.5741 43.8393 52.0608 43.8393C50.5476 43.8393 49.3208 42.6126 49.3208 41.0993C49.3208 39.5861 50.5476 38.3593 52.0608 38.3593Z" fill="black"/>
<path d="M68.5002 38.3593C70.0136 38.3593 71.2402 39.5861 71.2402 41.0993C71.2402 42.6126 70.0136 43.8393 68.5002 43.8393C66.987 43.8393 65.7603 42.6126 65.7603 41.0993C65.7603 39.5861 66.987 38.3593 68.5002 38.3593Z" fill="black"/>
<path d="M79.4607 38.3593C80.974 38.3593 82.2007 39.5861 82.2007 41.0993C82.2007 42.6126 80.974 43.8393 79.4607 43.8393C77.9475 43.8393 76.7207 42.6126 76.7207 41.0993C76.7207 39.5861 77.9475 38.3593 79.4607 38.3593Z" fill="black"/>
<path d="M84.9402 38.3593C86.4535 38.3593 87.6802 39.5861 87.6802 41.0993C87.6802 42.6126 86.4535 43.8393 84.9402 43.8393C83.4269 43.8393 82.2002 42.6126 82.2002 41.0993C82.2002 39.5861 83.4269 38.3593 84.9402 38.3593Z" fill="black"/>
<path d="M90.4197 38.3593C91.933 38.3593 93.1597 39.5861 93.1597 41.0993C93.1597 42.6126 91.933 43.8393 90.4197 43.8393C88.9064 43.8393 87.6797 42.6126 87.6797 41.0993C87.6797 39.5861 88.9064 38.3593 90.4197 38.3593Z" fill="black"/>
<path d="M2.74048 43.8394C4.2538 43.8394 5.48047 45.0662 5.48047 46.5794C5.48047 48.0927 4.2538 49.3194 2.74048 49.3194C1.22724 49.3194 0.000488281 48.0927 0.000488281 46.5794C0.000488281 45.0662 1.22724 43.8394 2.74048 43.8394Z" fill="black"/>
<path d="M13.7009 43.8394C15.2143 43.8394 16.4409 45.0662 16.4409 46.5794C16.4409 48.0927 15.2143 49.3194 13.7009 49.3194C12.1877 49.3194 10.9609 48.0927 10.9609 46.5794C10.9609 45.0662 12.1877 43.8394 13.7009 43.8394Z" fill="black"/>
<path d="M35.6209 43.8394C37.1342 43.8394 38.3608 45.0662 38.3608 46.5794C38.3608 48.0927 37.1342 49.3194 35.6209 49.3194C34.1076 49.3194 32.8809 48.0927 32.8809 46.5794C32.8809 45.0662 34.1076 43.8394 35.6209 43.8394Z" fill="black"/>
<path d="M41.1003 43.8394C42.6137 43.8394 43.8403 45.0662 43.8403 46.5794C43.8403 48.0927 42.6137 49.3194 41.1003 49.3194C39.5871 49.3194 38.3604 48.0927 38.3604 46.5794C38.3604 45.0662 39.5871 43.8394 41.1003 43.8394Z" fill="black"/>
<path d="M52.0608 43.8394C53.5741 43.8394 54.8008 45.0662 54.8008 46.5794C54.8008 48.0927 53.5741 49.3194 52.0608 49.3194C50.5476 49.3194 49.3208 48.0927 49.3208 46.5794C49.3208 45.0662 50.5476 43.8394 52.0608 43.8394Z" fill="black"/>
<path d="M57.5403 43.8394C59.0536 43.8394 60.2803 45.0662 60.2803 46.5794C60.2803 48.0927 59.0536 49.3194 57.5403 49.3194C56.027 49.3194 54.8003 48.0927 54.8003 46.5794C54.8003 45.0662 56.027 43.8394 57.5403 43.8394Z" fill="black"/>
<path d="M68.4998 43.8394C70.0131 43.8394 71.2398 45.0662 71.2398 46.5794C71.2398 48.0927 70.0131 49.3194 68.4998 49.3194C66.9865 49.3194 65.7598 48.0927 65.7598 46.5794C65.7598 45.0662 66.9865 43.8394 68.4998 43.8394Z" fill="black"/>
<path d="M73.9807 43.8394C75.494 43.8394 76.7207 45.0662 76.7207 46.5794C76.7207 48.0927 75.494 49.3194 73.9807 49.3194C72.4675 49.3194 71.2407 48.0927 71.2407 46.5794C71.2407 45.0662 72.4675 43.8394 73.9807 43.8394Z" fill="black"/>
<path d="M79.4607 43.8394C80.974 43.8394 82.2007 45.0662 82.2007 46.5794C82.2007 48.0927 80.974 49.3194 79.4607 49.3194C77.9475 49.3194 76.7207 48.0927 76.7207 46.5794C76.7207 45.0662 77.9475 43.8394 79.4607 43.8394Z" fill="black"/>
<path d="M90.4197 43.8394C91.933 43.8394 93.1597 45.0662 93.1597 46.5794C93.1597 48.0927 91.933 49.3194 90.4197 49.3194C88.9064 49.3194 87.6797 48.0927 87.6797 46.5794C87.6797 45.0662 88.9064 43.8394 90.4197 43.8394Z" fill="black"/>
<path d="M106.86 43.8394C108.373 43.8394 109.6 45.0662 109.6 46.5794C109.6 48.0927 108.373 49.3194 106.86 49.3194C105.347 49.3194 104.12 48.0927 104.12 46.5794C104.12 45.0662 105.347 43.8394 106.86 43.8394Z" fill="black"/>
<path d="M123.3 43.8394C124.813 43.8394 126.04 45.0662 126.04 46.5794C126.04 48.0927 124.813 49.3194 123.3 49.3194C121.787 49.3194 120.56 48.0927 120.56 46.5794C120.56 45.0662 121.787 43.8394 123.3 43.8394Z" fill="black"/>
<path d="M134.261 43.8394C135.774 43.8394 137 45.0662 137 46.5794C137 48.0927 135.774 49.3194 134.261 49.3194C132.747 49.3194 131.521 48.0927 131.521 46.5794C131.521 45.0662 132.747 43.8394 134.261 43.8394Z" fill="black"/>
<path d="M2.74048 49.319C4.2538 49.319 5.48047 50.5458 5.48047 52.059C5.48047 53.5723 4.2538 54.799 2.74048 54.799C1.22724 54.799 0.000488281 53.5723 0.000488281 52.059C0.000488281 50.5458 1.22724 49.319 2.74048 49.319Z" fill="black"/>
<path d="M19.1804 49.319C20.6937 49.319 21.9204 50.5458 21.9204 52.059C21.9204 53.5723 20.6937 54.799 19.1804 54.799C17.6672 54.799 16.4404 53.5723 16.4404 52.059C16.4404 50.5458 17.6672 49.319 19.1804 49.319Z" fill="black"/>
<path d="M24.6599 49.319C26.1732 49.319 27.3999 50.5458 27.3999 52.059C27.3999 53.5723 26.1732 54.799 24.6599 54.799C23.1467 54.799 21.9199 53.5723 21.9199 52.059C21.9199 50.5458 23.1467 49.319 24.6599 49.319Z" fill="black"/>
<path d="M30.1399 49.319C31.6532 49.319 32.8799 50.5458 32.8799 52.059C32.8799 53.5723 31.6532 54.799 30.1399 54.799C28.6267 54.799 27.3999 53.5723 27.3999 52.059C27.3999 50.5458 28.6267 49.319 30.1399 49.319Z" fill="black"/>
<path d="M46.5803 49.319C48.0936 49.319 49.3203 50.5458 49.3203 52.059C49.3203 53.5723 48.0936 54.799 46.5803 54.799C45.0671 54.799 43.8403 53.5723 43.8403 52.059C43.8403 50.5458 45.0671 49.319 46.5803 49.319Z" fill="black"/>
<path d="M73.9807 49.319C75.494 49.319 76.7207 50.5458 76.7207 52.059C76.7207 53.5723 75.494 54.799 73.9807 54.799C72.4675 54.799 71.2407 53.5723 71.2407 52.059C71.2407 50.5458 72.4675 49.319 73.9807 49.319Z" fill="black"/>
<path d="M79.4607 49.319C80.974 49.319 82.2007 50.5458 82.2007 52.059C82.2007 53.5723 80.974 54.799 79.4607 54.799C77.9475 54.799 76.7207 53.5723 76.7207 52.059C76.7207 50.5458 77.9475 49.319 79.4607 49.319Z" fill="black"/>
<path d="M95.9001 49.319C97.4135 49.319 98.6401 50.5458 98.6401 52.059C98.6401 53.5723 97.4135 54.799 95.9001 54.799C94.3869 54.799 93.1602 53.5723 93.1602 52.059C93.1602 50.5458 94.3869 49.319 95.9001 49.319Z" fill="black"/>
<path d="M101.381 49.319C102.894 49.319 104.121 50.5458 104.121 52.059C104.121 53.5723 102.894 54.799 101.381 54.799C99.8674 54.799 98.6406 53.5723 98.6406 52.059C98.6406 50.5458 99.8674 49.319 101.381 49.319Z" fill="black"/>
<path d="M106.86 49.319C108.373 49.319 109.6 50.5458 109.6 52.059C109.6 53.5723 108.373 54.799 106.86 54.799C105.347 54.799 104.12 53.5723 104.12 52.059C104.12 50.5458 105.347 49.319 106.86 49.319Z" fill="black"/>
<path d="M117.821 49.319C119.334 49.319 120.561 50.5458 120.561 52.059C120.561 53.5723 119.334 54.799 117.821 54.799C116.307 54.799 115.081 53.5723 115.081 52.059C115.081 50.5458 116.307 49.319 117.821 49.319Z" fill="black"/>
<path d="M128.78 49.319C130.293 49.319 131.52 50.5458 131.52 52.059C131.52 53.5723 130.293 54.799 128.78 54.799C127.266 54.799 126.04 53.5723 126.04 52.059C126.04 50.5458 127.266 49.319 128.78 49.319Z" fill="black"/>
<path d="M134.261 49.319C135.774 49.319 137 50.5458 137 52.059C137 53.5723 135.774 54.799 134.261 54.799C132.747 54.799 131.521 53.5723 131.521 52.059C131.521 50.5458 132.747 49.319 134.261 49.319Z" fill="black"/>
<path d="M2.74048 54.7997C4.2538 54.7997 5.48047 56.0264 5.48047 57.5397C5.48047 59.053 4.2538 60.2797 2.74048 60.2797C1.22724 60.2797 0.000488281 59.053 0.000488281 57.5397C0.000488281 56.0264 1.22724 54.7997 2.74048 54.7997Z" fill="black"/>
<path d="M8.21997 54.7997C9.73329 54.7997 10.96 56.0264 10.96 57.5397C10.96 59.053 9.73329 60.2797 8.21997 60.2797C6.70673 60.2797 5.47998 59.053 5.47998 57.5397C5.47998 56.0264 6.70673 54.7997 8.21997 54.7997Z" fill="black"/>
<path d="M35.6209 54.7997C37.1342 54.7997 38.3608 56.0264 38.3608 57.5397C38.3608 59.053 37.1342 60.2797 35.6209 60.2797C34.1076 60.2797 32.8809 59.053 32.8809 57.5397C32.8809 56.0264 34.1076 54.7997 35.6209 54.7997Z" fill="black"/>
<path d="M46.5803 54.7997C48.0936 54.7997 49.3203 56.0264 49.3203 57.5397C49.3203 59.053 48.0936 60.2797 46.5803 60.2797C45.0671 60.2797 43.8403 59.053 43.8403 57.5397C43.8403 56.0264 45.0671 54.7997 46.5803 54.7997Z" fill="black"/>
<path d="M63.0203 54.7997C64.5336 54.7997 65.7603 56.0264 65.7603 57.5397C65.7603 59.053 64.5336 60.2797 63.0203 60.2797C61.507 60.2797 60.2803 59.053 60.2803 57.5397C60.2803 56.0264 61.507 54.7997 63.0203 54.7997Z" fill="black"/>
<path d="M68.4998 54.7997C70.0131 54.7997 71.2398 56.0264 71.2398 57.5397C71.2398 59.053 70.0131 60.2797 68.4998 60.2797C66.9865 60.2797 65.7598 59.053 65.7598 57.5397C65.7598 56.0264 66.9865 54.7997 68.4998 54.7997Z" fill="black"/>
<path d="M84.9402 54.7997C86.4535 54.7997 87.6802 56.0264 87.6802 57.5397C87.6802 59.053 86.4535 60.2797 84.9402 60.2797C83.4269 60.2797 82.2002 59.053 82.2002 57.5397C82.2002 56.0264 83.4269 54.7997 84.9402 54.7997Z" fill="black"/>
<path d="M95.9006 54.7997C97.414 54.7997 98.6406 56.0264 98.6406 57.5397C98.6406 59.053 97.414 60.2797 95.9006 60.2797C94.3874 60.2797 93.1606 59.053 93.1606 57.5397C93.1606 56.0264 94.3874 54.7997 95.9006 54.7997Z" fill="black"/>
<path d="M117.82 54.7997C119.333 54.7997 120.56 56.0264 120.56 57.5397C120.56 59.053 119.333 60.2797 117.82 60.2797C116.307 60.2797 115.08 59.053 115.08 57.5397C115.08 56.0264 116.307 54.7997 117.82 54.7997Z" fill="black"/>
<path d="M123.301 54.7997C124.814 54.7997 126.041 56.0264 126.041 57.5397C126.041 59.053 124.814 60.2797 123.301 60.2797C121.787 60.2797 120.561 59.053 120.561 57.5397C120.561 56.0264 121.787 54.7997 123.301 54.7997Z" fill="black"/>
<path d="M134.261 54.7997C135.774 54.7997 137 56.0264 137 57.5397C137 59.053 135.774 60.2797 134.261 60.2797C132.747 60.2797 131.521 59.053 131.521 57.5397C131.521 56.0264 132.747 54.7997 134.261 54.7997Z" fill="black"/>
<path d="M8.22046 60.2798C9.73378 60.2798 10.9605 61.5065 10.9605 63.0198C10.9605 64.5331 9.73378 65.7598 8.22046 65.7598C6.70722 65.7598 5.48047 64.5331 5.48047 63.0198C5.48047 61.5065 6.70722 60.2798 8.22046 60.2798Z" fill="black"/>
<path d="M24.6599 60.2798C26.1732 60.2798 27.3999 61.5065 27.3999 63.0198C27.3999 64.5331 26.1732 65.7598 24.6599 65.7598C23.1467 65.7598 21.9199 64.5331 21.9199 63.0198C21.9199 61.5065 23.1467 60.2798 24.6599 60.2798Z" fill="black"/>
<path d="M52.0598 60.2798C53.5731 60.2798 54.7998 61.5065 54.7998 63.0198C54.7998 64.5331 53.5731 65.7598 52.0598 65.7598C50.5466 65.7598 49.3198 64.5331 49.3198 63.0198C49.3198 61.5065 50.5466 60.2798 52.0598 60.2798Z" fill="black"/>
<path d="M57.5408 60.2798C59.0541 60.2798 60.2808 61.5065 60.2808 63.0198C60.2808 64.5331 59.0541 65.7598 57.5408 65.7598C56.0275 65.7598 54.8008 64.5331 54.8008 63.0198C54.8008 61.5065 56.0275 60.2798 57.5408 60.2798Z" fill="black"/>
<path d="M63.0203 60.2798C64.5336 60.2798 65.7603 61.5065 65.7603 63.0198C65.7603 64.5331 64.5336 65.7598 63.0203 65.7598C61.507 65.7598 60.2803 64.5331 60.2803 63.0198C60.2803 61.5065 61.507 60.2798 63.0203 60.2798Z" fill="black"/>
<path d="M68.5002 60.2798C70.0136 60.2798 71.2402 61.5065 71.2402 63.0198C71.2402 64.5331 70.0136 65.7598 68.5002 65.7598C66.987 65.7598 65.7603 64.5331 65.7603 63.0198C65.7603 61.5065 66.987 60.2798 68.5002 60.2798Z" fill="black"/>
<path d="M73.9802 60.2798C75.4935 60.2798 76.7202 61.5065 76.7202 63.0198C76.7202 64.5331 75.4935 65.7598 73.9802 65.7598C72.467 65.7598 71.2402 64.5331 71.2402 63.0198C71.2402 61.5065 72.467 60.2798 73.9802 60.2798Z" fill="black"/>
<path d="M90.4197 60.2798C91.933 60.2798 93.1597 61.5065 93.1597 63.0198C93.1597 64.5331 91.933 65.7598 90.4197 65.7598C88.9064 65.7598 87.6797 64.5331 87.6797 63.0198C87.6797 61.5065 88.9064 60.2798 90.4197 60.2798Z" fill="black"/>
<path d="M101.381 60.2798C102.894 60.2798 104.121 61.5065 104.121 63.0198C104.121 64.5331 102.894 65.7598 101.381 65.7598C99.8674 65.7598 98.6406 64.5331 98.6406 63.0198C98.6406 61.5065 99.8674 60.2798 101.381 60.2798Z" fill="black"/>
<path d="M106.86 60.2798C108.373 60.2798 109.6 61.5065 109.6 63.0198C109.6 64.5331 108.373 65.7598 106.86 65.7598C105.347 65.7598 104.12 64.5331 104.12 63.0198C104.12 61.5065 105.347 60.2798 106.86 60.2798Z" fill="black"/>
<path d="M112.341 60.2798C113.854 60.2798 115.081 61.5065 115.081 63.0198C115.081 64.5331 113.854 65.7598 112.341 65.7598C110.827 65.7598 109.601 64.5331 109.601 63.0198C109.601 61.5065 110.827 60.2798 112.341 60.2798Z" fill="black"/>
<path d="M117.821 60.2798C119.334 60.2798 120.561 61.5065 120.561 63.0198C120.561 64.5331 119.334 65.7598 117.821 65.7598C116.307 65.7598 115.081 64.5331 115.081 63.0198C115.081 61.5065 116.307 60.2798 117.821 60.2798Z" fill="black"/>
<path d="M24.6599 65.7594C26.1732 65.7594 27.3999 66.9861 27.3999 68.4994C27.3999 70.0127 26.1732 71.2394 24.6599 71.2394C23.1467 71.2394 21.9199 70.0127 21.9199 68.4994C21.9199 66.9861 23.1467 65.7594 24.6599 65.7594Z" fill="black"/>
<path d="M30.1399 65.7594C31.6532 65.7594 32.8799 66.9861 32.8799 68.4994C32.8799 70.0127 31.6532 71.2394 30.1399 71.2394C28.6267 71.2394 27.3999 70.0127 27.3999 68.4994C27.3999 66.9861 28.6267 65.7594 30.1399 65.7594Z" fill="black"/>
<path d="M35.6209 65.7594C37.1342 65.7594 38.3608 66.9861 38.3608 68.4994C38.3608 70.0127 37.1342 71.2394 35.6209 71.2394C34.1076 71.2394 32.8809 70.0127 32.8809 68.4994C32.8809 66.9861 34.1076 65.7594 35.6209 65.7594Z" fill="black"/>
<path d="M41.1003 65.7594C42.6137 65.7594 43.8403 66.9861 43.8403 68.4994C43.8403 70.0127 42.6137 71.2394 41.1003 71.2394C39.5871 71.2394 38.3604 70.0127 38.3604 68.4994C38.3604 66.9861 39.5871 65.7594 41.1003 65.7594Z" fill="black"/>
<path d="M46.5798 65.7594C48.0932 65.7594 49.3198 66.9861 49.3198 68.4994C49.3198 70.0127 48.0932 71.2394 46.5798 71.2394C45.0666 71.2394 43.8398 70.0127 43.8398 68.4994C43.8398 66.9861 45.0666 65.7594 46.5798 65.7594Z" fill="black"/>
<path d="M52.0598 65.7594C53.5731 65.7594 54.7998 66.9861 54.7998 68.4994C54.7998 70.0127 53.5731 71.2394 52.0598 71.2394C50.5466 71.2394 49.3198 70.0127 49.3198 68.4994C49.3198 66.9861 50.5466 65.7594 52.0598 65.7594Z" fill="black"/>
<path d="M68.5002 65.7594C70.0136 65.7594 71.2402 66.9861 71.2402 68.4994C71.2402 70.0127 70.0136 71.2394 68.5002 71.2394C66.987 71.2394 65.7603 70.0127 65.7603 68.4994C65.7603 66.9861 66.987 65.7594 68.5002 65.7594Z" fill="black"/>
<path d="M73.9802 65.7594C75.4935 65.7594 76.7202 66.9861 76.7202 68.4994C76.7202 70.0127 75.4935 71.2394 73.9802 71.2394C72.467 71.2394 71.2402 70.0127 71.2402 68.4994C71.2402 66.9861 72.467 65.7594 73.9802 65.7594Z" fill="black"/>
<path d="M84.9397 65.7594C86.453 65.7594 87.6797 66.9861 87.6797 68.4994C87.6797 70.0127 86.453 71.2394 84.9397 71.2394C83.4265 71.2394 82.1997 70.0127 82.1997 68.4994C82.1997 66.9861 83.4265 65.7594 84.9397 65.7594Z" fill="black"/>
<path d="M101.381 65.7594C102.894 65.7594 104.121 66.9861 104.121 68.4994C104.121 70.0127 102.894 71.2394 101.381 71.2394C99.8674 71.2394 98.6406 70.0127 98.6406 68.4994C98.6406 66.9861 99.8674 65.7594 101.381 65.7594Z" fill="black"/>
<path d="M106.86 65.7594C108.373 65.7594 109.6 66.9861 109.6 68.4994C109.6 70.0127 108.373 71.2394 106.86 71.2394C105.347 71.2394 104.12 70.0127 104.12 68.4994C104.12 66.9861 105.347 65.7594 106.86 65.7594Z" fill="black"/>
<path d="M134.26 65.7594C135.773 65.7594 137 66.9861 137 68.4994C137 70.0127 135.773 71.2394 134.26 71.2394C132.747 71.2394 131.52 70.0127 131.52 68.4994C131.52 66.9861 132.747 65.7594 134.26 65.7594Z" fill="black"/>
<path d="M13.7009 71.2401C15.2143 71.2401 16.4409 72.4668 16.4409 73.98C16.4409 75.4934 15.2143 76.72 13.7009 76.72C12.1877 76.72 10.9609 75.4934 10.9609 73.98C10.9609 72.4668 12.1877 71.2401 13.7009 71.2401Z" fill="black"/>
<path d="M19.1799 71.2401C20.6933 71.2401 21.9199 72.4668 21.9199 73.98C21.9199 75.4934 20.6933 76.72 19.1799 76.72C17.6667 76.72 16.4399 75.4934 16.4399 73.98C16.4399 72.4668 17.6667 71.2401 19.1799 71.2401Z" fill="black"/>
<path d="M30.1399 71.2401C31.6532 71.2401 32.8799 72.4668 32.8799 73.98C32.8799 75.4934 31.6532 76.72 30.1399 76.72C28.6267 76.72 27.3999 75.4934 27.3999 73.98C27.3999 72.4668 28.6267 71.2401 30.1399 71.2401Z" fill="black"/>
<path d="M46.5803 71.2401C48.0936 71.2401 49.3203 72.4668 49.3203 73.98C49.3203 75.4934 48.0936 76.72 46.5803 76.72C45.0671 76.72 43.8403 75.4934 43.8403 73.98C43.8403 72.4668 45.0671 71.2401 46.5803 71.2401Z" fill="black"/>
<path d="M52.0598 71.2401C53.5731 71.2401 54.7998 72.4668 54.7998 73.98C54.7998 75.4934 53.5731 76.72 52.0598 76.72C50.5466 76.72 49.3198 75.4934 49.3198 73.98C49.3198 72.4668 50.5466 71.2401 52.0598 71.2401Z" fill="black"/>
<path d="M68.4998 71.2401C70.0131 71.2401 71.2398 72.4668 71.2398 73.98C71.2398 75.4934 70.0131 76.72 68.4998 76.72C66.9865 76.72 65.7598 75.4934 65.7598 73.98C65.7598 72.4668 66.9865 71.2401 68.4998 71.2401Z" fill="black"/>
<path d="M84.9402 71.2401C86.4535 71.2401 87.6802 72.4668 87.6802 73.98C87.6802 75.4934 86.4535 76.72 84.9402 76.72C83.4269 76.72 82.2002 75.4934 82.2002 73.98C82.2002 72.4668 83.4269 71.2401 84.9402 71.2401Z" fill="black"/>
<path d="M90.4197 71.2401C91.933 71.2401 93.1597 72.4668 93.1597 73.98C93.1597 75.4934 91.933 76.72 90.4197 76.72C88.9064 76.72 87.6797 75.4934 87.6797 73.98C87.6797 72.4668 88.9064 71.2401 90.4197 71.2401Z" fill="black"/>
<path d="M101.381 71.2401C102.894 71.2401 104.121 72.4668 104.121 73.98C104.121 75.4934 102.894 76.72 101.381 76.72C99.8674 76.72 98.6406 75.4934 98.6406 73.98C98.6406 72.4668 99.8674 71.2401 101.381 71.2401Z" fill="black"/>
<path d="M106.86 71.2401C108.373 71.2401 109.6 72.4668 109.6 73.98C109.6 75.4934 108.373 76.72 106.86 76.72C105.347 76.72 104.12 75.4934 104.12 73.98C104.12 72.4668 105.347 71.2401 106.86 71.2401Z" fill="black"/>
<path d="M128.78 71.2401C130.293 71.2401 131.52 72.4668 131.52 73.98C131.52 75.4934 130.293 76.72 128.78 76.72C127.267 76.72 126.04 75.4934 126.04 73.98C126.04 72.4668 127.267 71.2401 128.78 71.2401Z" fill="black"/>
<path d="M134.261 71.2401C135.774 71.2401 137 72.4668 137 73.98C137 75.4934 135.774 76.72 134.261 76.72C132.747 76.72 131.521 75.4934 131.521 73.98C131.521 72.4668 132.747 71.2401 134.261 71.2401Z" fill="black"/>
<path d="M2.74048 76.7197C4.2538 76.7197 5.48047 77.9464 5.48047 79.4597C5.48047 80.973 4.2538 82.1997 2.74048 82.1997C1.22724 82.1997 0.000488281 80.973 0.000488281 79.4597C0.000488281 77.9464 1.22724 76.7197 2.74048 76.7197Z" fill="black"/>
<path d="M8.21997 76.7197C9.73329 76.7197 10.96 77.9464 10.96 79.4597C10.96 80.973 9.73329 82.1997 8.21997 82.1997C6.70673 82.1997 5.47998 80.973 5.47998 79.4597C5.47998 77.9464 6.70673 76.7197 8.21997 76.7197Z" fill="black"/>
<path d="M13.7009 76.7197C15.2143 76.7197 16.4409 77.9464 16.4409 79.4597C16.4409 80.973 15.2143 82.1997 13.7009 82.1997C12.1877 82.1997 10.9609 80.973 10.9609 79.4597C10.9609 77.9464 12.1877 76.7197 13.7009 76.7197Z" fill="black"/>
<path d="M30.1399 76.7197C31.6532 76.7197 32.8799 77.9464 32.8799 79.4597C32.8799 80.973 31.6532 82.1997 30.1399 82.1997C28.6267 82.1997 27.3999 80.973 27.3999 79.4597C27.3999 77.9464 28.6267 76.7197 30.1399 76.7197Z" fill="black"/>
<path d="M35.6209 76.7197C37.1342 76.7197 38.3608 77.9464 38.3608 79.4597C38.3608 80.973 37.1342 82.1997 35.6209 82.1997C34.1076 82.1997 32.8809 80.973 32.8809 79.4597C32.8809 77.9464 34.1076 76.7197 35.6209 76.7197Z" fill="black"/>
<path d="M68.4998 76.7197C70.0131 76.7197 71.2398 77.9464 71.2398 79.4597C71.2398 80.973 70.0131 82.1997 68.4998 82.1997C66.9865 82.1997 65.7598 80.973 65.7598 79.4597C65.7598 77.9464 66.9865 76.7197 68.4998 76.7197Z" fill="black"/>
<path d="M73.9807 76.7197C75.494 76.7197 76.7207 77.9464 76.7207 79.4597C76.7207 80.973 75.494 82.1997 73.9807 82.1997C72.4675 82.1997 71.2407 80.973 71.2407 79.4597C71.2407 77.9464 72.4675 76.7197 73.9807 76.7197Z" fill="black"/>
<path d="M79.4602 76.7197C80.9735 76.7197 82.2002 77.9464 82.2002 79.4597C82.2002 80.973 80.9735 82.1997 79.4602 82.1997C77.947 82.1997 76.7202 80.973 76.7202 79.4597C76.7202 77.9464 77.947 76.7197 79.4602 76.7197Z" fill="black"/>
<path d="M84.9402 76.7197C86.4535 76.7197 87.6802 77.9464 87.6802 79.4597C87.6802 80.973 86.4535 82.1997 84.9402 82.1997C83.4269 82.1997 82.2002 80.973 82.2002 79.4597C82.2002 77.9464 83.4269 76.7197 84.9402 76.7197Z" fill="black"/>
<path d="M90.4197 76.7197C91.933 76.7197 93.1597 77.9464 93.1597 79.4597C93.1597 80.973 91.933 82.1997 90.4197 82.1997C88.9064 82.1997 87.6797 80.973 87.6797 79.4597C87.6797 77.9464 88.9064 76.7197 90.4197 76.7197Z" fill="black"/>
<path d="M95.9006 76.7197C97.414 76.7197 98.6406 77.9464 98.6406 79.4597C98.6406 80.973 97.414 82.1997 95.9006 82.1997C94.3874 82.1997 93.1606 80.973 93.1606 79.4597C93.1606 77.9464 94.3874 76.7197 95.9006 76.7197Z" fill="black"/>
<path d="M106.86 76.7197C108.373 76.7197 109.6 77.9464 109.6 79.4597C109.6 80.973 108.373 82.1997 106.86 82.1997C105.347 82.1997 104.12 80.973 104.12 79.4597C104.12 77.9464 105.347 76.7197 106.86 76.7197Z" fill="black"/>
<path d="M117.82 76.7197C119.333 76.7197 120.56 77.9464 120.56 79.4597C120.56 80.973 119.333 82.1997 117.82 82.1997C116.307 82.1997 115.08 80.973 115.08 79.4597C115.08 77.9464 116.307 76.7197 117.82 76.7197Z" fill="black"/>
<path d="M123.301 76.7197C124.814 76.7197 126.041 77.9464 126.041 79.4597C126.041 80.973 124.814 82.1997 123.301 82.1997C121.787 82.1997 120.561 80.973 120.561 79.4597C120.561 77.9464 121.787 76.7197 123.301 76.7197Z" fill="black"/>
<path d="M134.261 76.7197C135.774 76.7197 137 77.9464 137 79.4597C137 80.973 135.774 82.1997 134.261 82.1997C132.747 82.1997 131.521 80.973 131.521 79.4597C131.521 77.9464 132.747 76.7197 134.261 76.7197Z" fill="black"/>
<path d="M19.1804 82.1998C20.6937 82.1998 21.9204 83.4265 21.9204 84.9398C21.9204 86.4531 20.6937 87.6798 19.1804 87.6798C17.6672 87.6798 16.4404 86.4531 16.4404 84.9398C16.4404 83.4265 17.6672 82.1998 19.1804 82.1998Z" fill="black"/>
<path d="M24.6599 82.1998C26.1732 82.1998 27.3999 83.4265 27.3999 84.9398C27.3999 86.4531 26.1732 87.6798 24.6599 87.6798C23.1467 87.6798 21.9199 86.4531 21.9199 84.9398C21.9199 83.4265 23.1467 82.1998 24.6599 82.1998Z" fill="black"/>
<path d="M41.1003 82.1998C42.6137 82.1998 43.8403 83.4265 43.8403 84.9398C43.8403 86.4531 42.6137 87.6798 41.1003 87.6798C39.5871 87.6798 38.3604 86.4531 38.3604 84.9398C38.3604 83.4265 39.5871 82.1998 41.1003 82.1998Z" fill="black"/>
<path d="M46.5798 82.1998C48.0932 82.1998 49.3198 83.4265 49.3198 84.9398C49.3198 86.4531 48.0932 87.6798 46.5798 87.6798C45.0666 87.6798 43.8398 86.4531 43.8398 84.9398C43.8398 83.4265 45.0666 82.1998 46.5798 82.1998Z" fill="black"/>
<path d="M52.0598 82.1998C53.5731 82.1998 54.7998 83.4265 54.7998 84.9398C54.7998 86.4531 53.5731 87.6798 52.0598 87.6798C50.5466 87.6798 49.3198 86.4531 49.3198 84.9398C49.3198 83.4265 50.5466 82.1998 52.0598 82.1998Z" fill="black"/>
<path d="M57.5408 82.1998C59.0541 82.1998 60.2808 83.4265 60.2808 84.9398C60.2808 86.4531 59.0541 87.6798 57.5408 87.6798C56.0275 87.6798 54.8008 86.4531 54.8008 84.9398C54.8008 83.4265 56.0275 82.1998 57.5408 82.1998Z" fill="black"/>
<path d="M63.0203 82.1998C64.5336 82.1998 65.7603 83.4265 65.7603 84.9398C65.7603 86.4531 64.5336 87.6798 63.0203 87.6798C61.507 87.6798 60.2803 86.4531 60.2803 84.9398C60.2803 83.4265 61.507 82.1998 63.0203 82.1998Z" fill="black"/>
<path d="M68.5002 82.1998C70.0136 82.1998 71.2402 83.4265 71.2402 84.9398C71.2402 86.4531 70.0136 87.6798 68.5002 87.6798C66.987 87.6798 65.7603 86.4531 65.7603 84.9398C65.7603 83.4265 66.987 82.1998 68.5002 82.1998Z" fill="black"/>
<path d="M79.4607 82.1998C80.974 82.1998 82.2007 83.4265 82.2007 84.9398C82.2007 86.4531 80.974 87.6798 79.4607 87.6798C77.9475 87.6798 76.7207 86.4531 76.7207 84.9398C76.7207 83.4265 77.9475 82.1998 79.4607 82.1998Z" fill="black"/>
<path d="M84.9397 82.1998C86.453 82.1998 87.6797 83.4265 87.6797 84.9398C87.6797 86.4531 86.453 87.6798 84.9397 87.6798C83.4265 87.6798 82.1997 86.4531 82.1997 84.9398C82.1997 83.4265 83.4265 82.1998 84.9397 82.1998Z" fill="black"/>
<path d="M95.9001 82.1998C97.4135 82.1998 98.6401 83.4265 98.6401 84.9398C98.6401 86.4531 97.4135 87.6798 95.9001 87.6798C94.3869 87.6798 93.1602 86.4531 93.1602 84.9398C93.1602 83.4265 94.3869 82.1998 95.9001 82.1998Z" fill="black"/>
<path d="M106.86 82.1998C108.373 82.1998 109.6 83.4265 109.6 84.9398C109.6 86.4531 108.373 87.6798 106.86 87.6798C105.347 87.6798 104.12 86.4531 104.12 84.9398C104.12 83.4265 105.347 82.1998 106.86 82.1998Z" fill="black"/>
<path d="M2.74048 87.6794C4.2538 87.6794 5.48047 88.9061 5.48047 90.4194C5.48047 91.9327 4.2538 93.1594 2.74048 93.1594C1.22724 93.1594 0.000488281 91.9327 0.000488281 90.4194C0.000488281 88.9061 1.22724 87.6794 2.74048 87.6794Z" fill="black"/>
<path d="M8.22046 87.6794C9.73378 87.6794 10.9605 88.9061 10.9605 90.4194C10.9605 91.9327 9.73378 93.1594 8.22046 93.1594C6.70722 93.1594 5.48047 91.9327 5.48047 90.4194C5.48047 88.9061 6.70722 87.6794 8.22046 87.6794Z" fill="black"/>
<path d="M13.7009 87.6794C15.2143 87.6794 16.4409 88.9061 16.4409 90.4194C16.4409 91.9327 15.2143 93.1594 13.7009 93.1594C12.1877 93.1594 10.9609 91.9327 10.9609 90.4194C10.9609 88.9061 12.1877 87.6794 13.7009 87.6794Z" fill="black"/>
<path d="M19.1809 87.6794C20.6942 87.6794 21.9209 88.9061 21.9209 90.4194C21.9209 91.9327 20.6942 93.1594 19.1809 93.1594C17.6677 93.1594 16.4409 91.9327 16.4409 90.4194C16.4409 88.9061 17.6677 87.6794 19.1809 87.6794Z" fill="black"/>
<path d="M24.6594 87.6794C26.1727 87.6794 27.3994 88.9061 27.3994 90.4194C27.3994 91.9327 26.1727 93.1594 24.6594 93.1594C23.1462 93.1594 21.9194 91.9327 21.9194 90.4194C21.9194 88.9061 23.1462 87.6794 24.6594 87.6794Z" fill="black"/>
<path d="M30.1399 87.6794C31.6532 87.6794 32.8799 88.9061 32.8799 90.4194C32.8799 91.9327 31.6532 93.1594 30.1399 93.1594C28.6267 93.1594 27.3999 91.9327 27.3999 90.4194C27.3999 88.9061 28.6267 87.6794 30.1399 87.6794Z" fill="black"/>
<path d="M35.6209 87.6794C37.1342 87.6794 38.3608 88.9061 38.3608 90.4194C38.3608 91.9327 37.1342 93.1594 35.6209 93.1594C34.1076 93.1594 32.8809 91.9327 32.8809 90.4194C32.8809 88.9061 34.1076 87.6794 35.6209 87.6794Z" fill="black"/>
<path d="M73.9802 87.6794C75.4935 87.6794 76.7202 88.9061 76.7202 90.4194C76.7202 91.9327 75.4935 93.1594 73.9802 93.1594C72.467 93.1594 71.2402 91.9327 71.2402 90.4194C71.2402 88.9061 72.467 87.6794 73.9802 87.6794Z" fill="black"/>
<path d="M79.4607 87.6794C80.974 87.6794 82.2007 88.9061 82.2007 90.4194C82.2007 91.9327 80.974 93.1594 79.4607 93.1594C77.9475 93.1594 76.7207 91.9327 76.7207 90.4194C76.7207 88.9061 77.9475 87.6794 79.4607 87.6794Z" fill="black"/>
<path d="M84.9402 87.6794C86.4535 87.6794 87.6802 88.9061 87.6802 90.4194C87.6802 91.9327 86.4535 93.1594 84.9402 93.1594C83.4269 93.1594 82.2002 91.9327 82.2002 90.4194C82.2002 88.9061 83.4269 87.6794 84.9402 87.6794Z" fill="black"/>
<path d="M90.4197 87.6794C91.933 87.6794 93.1597 88.9061 93.1597 90.4194C93.1597 91.9327 91.933 93.1594 90.4197 93.1594C88.9064 93.1594 87.6797 91.9327 87.6797 90.4194C87.6797 88.9061 88.9064 87.6794 90.4197 87.6794Z" fill="black"/>
<path d="M95.9001 87.6794C97.4135 87.6794 98.6401 88.9061 98.6401 90.4194C98.6401 91.9327 97.4135 93.1594 95.9001 93.1594C94.3869 93.1594 93.1602 91.9327 93.1602 90.4194C93.1602 88.9061 94.3869 87.6794 95.9001 87.6794Z" fill="black"/>
<path d="M101.381 87.6794C102.894 87.6794 104.121 88.9061 104.121 90.4194C104.121 91.9327 102.894 93.1594 101.381 93.1594C99.8674 93.1594 98.6406 91.9327 98.6406 90.4194C98.6406 88.9061 99.8674 87.6794 101.381 87.6794Z" fill="black"/>
<path d="M106.86 87.6794C108.373 87.6794 109.6 88.9061 109.6 90.4194C109.6 91.9327 108.373 93.1594 106.86 93.1594C105.347 93.1594 104.12 91.9327 104.12 90.4194C104.12 88.9061 105.347 87.6794 106.86 87.6794Z" fill="black"/>
<path d="M112.341 87.6794C113.854 87.6794 115.081 88.9061 115.081 90.4194C115.081 91.9327 113.854 93.1594 112.341 93.1594C110.828 93.1594 109.601 91.9327 109.601 90.4194C109.601 88.9061 110.828 87.6794 112.341 87.6794Z" fill="black"/>
<path d="M128.78 87.6794C130.293 87.6794 131.52 88.9061 131.52 90.4194C131.52 91.9327 130.293 93.1594 128.78 93.1594C127.266 93.1594 126.04 91.9327 126.04 90.4194C126.04 88.9061 127.266 87.6794 128.78 87.6794Z" fill="black"/>
<path d="M46.5803 93.1595C48.0936 93.1595 49.3203 94.3863 49.3203 95.8995C49.3203 97.4129 48.0936 98.6395 46.5803 98.6395C45.0671 98.6395 43.8403 97.4129 43.8403 95.8995C43.8403 94.3863 45.0671 93.1595 46.5803 93.1595Z" fill="black"/>
<path d="M57.5408 93.1595C59.0541 93.1595 60.2808 94.3863 60.2808 95.8995C60.2808 97.4129 59.0541 98.6395 57.5408 98.6395C56.0275 98.6395 54.8008 97.4129 54.8008 95.8995C54.8008 94.3863 56.0275 93.1595 57.5408 93.1595Z" fill="black"/>
<path d="M73.9802 93.1595C75.4935 93.1595 76.7202 94.3863 76.7202 95.8995C76.7202 97.4129 75.4935 98.6395 73.9802 98.6395C72.467 98.6395 71.2402 97.4129 71.2402 95.8995C71.2402 94.3863 72.467 93.1595 73.9802 93.1595Z" fill="black"/>
<path d="M79.4607 93.1595C80.974 93.1595 82.2007 94.3863 82.2007 95.8995C82.2007 97.4129 80.974 98.6395 79.4607 98.6395C77.9475 98.6395 76.7207 97.4129 76.7207 95.8995C76.7207 94.3863 77.9475 93.1595 79.4607 93.1595Z" fill="black"/>
<path d="M84.9402 93.1595C86.4535 93.1595 87.6802 94.3863 87.6802 95.8995C87.6802 97.4129 86.4535 98.6395 84.9402 98.6395C83.4269 98.6395 82.2002 97.4129 82.2002 95.8995C82.2002 94.3863 83.4269 93.1595 84.9402 93.1595Z" fill="black"/>
<path d="M90.4197 93.1595C91.933 93.1595 93.1597 94.3863 93.1597 95.8995C93.1597 97.4129 91.933 98.6395 90.4197 98.6395C88.9064 98.6395 87.6797 97.4129 87.6797 95.8995C87.6797 94.3863 88.9064 93.1595 90.4197 93.1595Z" fill="black"/>
<path d="M112.341 93.1595C113.854 93.1595 115.081 94.3863 115.081 95.8995C115.081 97.4129 113.854 98.6395 112.341 98.6395C110.828 98.6395 109.601 97.4129 109.601 95.8995C109.601 94.3863 110.828 93.1595 112.341 93.1595Z" fill="black"/>
<path d="M123.3 93.1595C124.813 93.1595 126.04 94.3863 126.04 95.8995C126.04 97.4129 124.813 98.6395 123.3 98.6395C121.786 98.6395 120.56 97.4129 120.56 95.8995C120.56 94.3863 121.786 93.1595 123.3 93.1595Z" fill="black"/>
<path d="M134.26 93.1595C135.773 93.1595 137 94.3863 137 95.8995C137 97.4129 135.773 98.6395 134.26 98.6395C132.747 98.6395 131.52 97.4129 131.52 95.8995C131.52 94.3863 132.747 93.1595 134.26 93.1595Z" fill="black"/>
<path d="M46.5803 98.6396C48.0936 98.6396 49.3203 99.8664 49.3203 101.38C49.3203 102.893 48.0936 104.12 46.5803 104.12C45.0671 104.12 43.8403 102.893 43.8403 101.38C43.8403 99.8664 45.0671 98.6396 46.5803 98.6396Z" fill="black"/>
<path d="M63.0203 98.6401C64.5336 98.6401 65.7603 99.8669 65.7603 101.38C65.7603 102.893 64.5336 104.12 63.0203 104.12C61.507 104.12 60.2803 102.893 60.2803 101.38C60.2803 99.8669 61.507 98.6401 63.0203 98.6401Z" fill="black"/>
<path d="M90.4197 98.6401C91.933 98.6401 93.1597 99.8669 93.1597 101.38C93.1597 102.893 91.933 104.12 90.4197 104.12C88.9064 104.12 87.6797 102.893 87.6797 101.38C87.6797 99.8669 88.9064 98.6401 90.4197 98.6401Z" fill="black"/>
<path d="M101.381 98.6401C102.894 98.6401 104.121 99.8669 104.121 101.38C104.121 102.893 102.894 104.12 101.381 104.12C99.8674 104.12 98.6406 102.893 98.6406 101.38C98.6406 99.8669 99.8674 98.6401 101.381 98.6401Z" fill="black"/>
<path d="M112.341 98.6401C113.854 98.6401 115.081 99.8669 115.081 101.38C115.081 102.893 113.854 104.12 112.341 104.12C110.828 104.12 109.601 102.893 109.601 101.38C109.601 99.8669 110.828 98.6401 112.341 98.6401Z" fill="black"/>
<path d="M117.821 98.6401C119.334 98.6401 120.561 99.8669 120.561 101.38C120.561 102.893 119.334 104.12 117.821 104.12C116.307 104.12 115.081 102.893 115.081 101.38C115.081 99.8669 116.307 98.6401 117.821 98.6401Z" fill="black"/>
<path d="M134.261 98.6401C135.774 98.6401 137 99.8669 137 101.38C137 102.893 135.774 104.12 134.261 104.12C132.747 104.12 131.521 102.893 131.521 101.38C131.521 99.8669 132.747 98.6401 134.261 98.6401Z" fill="black"/>
<path d="M57.5408 104.12C59.0541 104.12 60.2808 105.347 60.2808 106.86C60.2808 108.374 59.0541 109.6 57.5408 109.6C56.0275 109.6 54.8008 108.374 54.8008 106.86C54.8008 105.347 56.0275 104.12 57.5408 104.12Z" fill="black"/>
<path d="M73.9802 104.12C75.4935 104.12 76.7202 105.347 76.7202 106.86C76.7202 108.374 75.4935 109.6 73.9802 109.6C72.467 109.6 71.2402 108.374 71.2402 106.86C71.2402 105.347 72.467 104.12 73.9802 104.12Z" fill="black"/>
<path d="M84.9402 104.12C86.4535 104.12 87.6802 105.347 87.6802 106.86C87.6802 108.374 86.4535 109.6 84.9402 109.6C83.4269 109.6 82.2002 108.374 82.2002 106.86C82.2002 105.347 83.4269 104.12 84.9402 104.12Z" fill="black"/>
<path d="M90.4197 104.12C91.933 104.12 93.1597 105.347 93.1597 106.86C93.1597 108.374 91.933 109.6 90.4197 109.6C88.9064 109.6 87.6797 108.374 87.6797 106.86C87.6797 105.347 88.9064 104.12 90.4197 104.12Z" fill="black"/>
<path d="M112.341 104.12C113.854 104.12 115.081 105.347 115.081 106.86C115.081 108.374 113.854 109.6 112.341 109.6C110.828 109.6 109.601 108.374 109.601 106.86C109.601 105.347 110.828 104.12 112.341 104.12Z" fill="black"/>
<path d="M128.78 104.12C130.293 104.12 131.52 105.347 131.52 106.86C131.52 108.374 130.293 109.6 128.78 109.6C127.266 109.6 126.04 108.374 126.04 106.86C126.04 105.347 127.266 104.12 128.78 104.12Z" fill="black"/>
<path d="M134.26 104.12C135.773 104.12 137 105.347 137 106.86C137 108.374 135.773 109.6 134.26 109.6C132.747 109.6 131.52 108.374 131.52 106.86C131.52 105.347 132.747 104.12 134.26 104.12Z" fill="black"/>
<path d="M57.5408 109.6C59.0541 109.6 60.2808 110.827 60.2808 112.34C60.2808 113.853 59.0541 115.08 57.5408 115.08C56.0275 115.08 54.8008 113.853 54.8008 112.34C54.8008 110.827 56.0275 109.6 57.5408 109.6Z" fill="black"/>
<path d="M63.0203 109.6C64.5336 109.6 65.7603 110.827 65.7603 112.34C65.7603 113.853 64.5336 115.08 63.0203 115.08C61.507 115.08 60.2803 113.853 60.2803 112.34C60.2803 110.827 61.507 109.6 63.0203 109.6Z" fill="black"/>
<path d="M68.5002 109.6C70.0136 109.6 71.2402 110.827 71.2402 112.34C71.2402 113.853 70.0136 115.08 68.5002 115.08C66.987 115.08 65.7603 113.853 65.7603 112.34C65.7603 110.827 66.987 109.6 68.5002 109.6Z" fill="black"/>
<path d="M73.9802 109.6C75.4935 109.6 76.7202 110.827 76.7202 112.34C76.7202 113.853 75.4935 115.08 73.9802 115.08C72.467 115.08 71.2402 113.853 71.2402 112.34C71.2402 110.827 72.467 109.6 73.9802 109.6Z" fill="black"/>
<path d="M84.9402 109.6C86.4535 109.6 87.6802 110.827 87.6802 112.34C87.6802 113.853 86.4535 115.08 84.9402 115.08C83.4269 115.08 82.2002 113.853 82.2002 112.34C82.2002 110.827 83.4269 109.6 84.9402 109.6Z" fill="black"/>
<path d="M90.4197 109.6C91.933 109.6 93.1597 110.827 93.1597 112.34C93.1597 113.853 91.933 115.08 90.4197 115.08C88.9064 115.08 87.6797 113.853 87.6797 112.34C87.6797 110.827 88.9064 109.6 90.4197 109.6Z" fill="black"/>
<path d="M95.9001 109.6C97.4135 109.6 98.6401 110.827 98.6401 112.34C98.6401 113.853 97.4135 115.08 95.9001 115.08C94.3869 115.08 93.1602 113.853 93.1602 112.34C93.1602 110.827 94.3869 109.6 95.9001 109.6Z" fill="black"/>
<path d="M101.381 109.6C102.894 109.6 104.121 110.827 104.121 112.34C104.121 113.853 102.894 115.08 101.381 115.08C99.8674 115.08 98.6406 113.853 98.6406 112.34C98.6406 110.827 99.8674 109.6 101.381 109.6Z" fill="black"/>
<path d="M106.86 109.6C108.373 109.6 109.6 110.827 109.6 112.34C109.6 113.853 108.373 115.08 106.86 115.08C105.347 115.08 104.12 113.853 104.12 112.34C104.12 110.827 105.347 109.6 106.86 109.6Z" fill="black"/>
<path d="M112.341 109.6C113.854 109.6 115.081 110.827 115.081 112.34C115.081 113.853 113.854 115.08 112.341 115.08C110.828 115.08 109.601 113.853 109.601 112.34C109.601 110.827 110.828 109.6 112.341 109.6Z" fill="black"/>
<path d="M117.821 109.6C119.334 109.6 120.561 110.827 120.561 112.34C120.561 113.853 119.334 115.08 117.821 115.08C116.308 115.08 115.081 113.853 115.081 112.34C115.081 110.827 116.308 109.6 117.821 109.6Z" fill="black"/>
<path d="M52.0608 115.078C53.5741 115.078 54.8008 116.305 54.8008 117.818C54.8008 119.332 53.5741 120.558 52.0608 120.558C50.5476 120.558 49.3208 119.332 49.3208 117.818C49.3208 116.305 50.5476 115.078 52.0608 115.078Z" fill="black"/>
<path d="M68.5002 115.078C70.0136 115.078 71.2402 116.305 71.2402 117.818C71.2402 119.332 70.0136 120.558 68.5002 120.558C66.987 120.558 65.7603 119.332 65.7603 117.818C65.7603 116.305 66.987 115.078 68.5002 115.078Z" fill="black"/>
<path d="M90.4197 115.078C91.933 115.078 93.1597 116.305 93.1597 117.818C93.1597 119.332 91.933 120.558 90.4197 120.558C88.9064 120.558 87.6797 119.332 87.6797 117.818C87.6797 116.305 88.9064 115.078 90.4197 115.078Z" fill="black"/>
<path d="M95.9001 115.078C97.4135 115.078 98.6401 116.305 98.6401 117.818C98.6401 119.332 97.4135 120.558 95.9001 120.558C94.3869 120.558 93.1602 119.332 93.1602 117.818C93.1602 116.305 94.3869 115.078 95.9001 115.078Z" fill="black"/>
<path d="M106.86 115.078C108.373 115.078 109.6 116.305 109.6 117.818C109.6 119.332 108.373 120.558 106.86 120.558C105.347 120.558 104.12 119.332 104.12 117.818C104.12 116.305 105.347 115.078 106.86 115.078Z" fill="black"/>
<path d="M112.341 115.078C113.854 115.078 115.081 116.305 115.081 117.818C115.081 119.332 113.854 120.558 112.341 120.558C110.828 120.558 109.601 119.332 109.601 117.818C109.601 116.305 110.828 115.078 112.341 115.078Z" fill="black"/>
<path d="M117.821 115.078C119.334 115.078 120.561 116.305 120.561 117.818C120.561 119.332 119.334 120.558 117.821 120.558C116.308 120.558 115.081 119.332 115.081 117.818C115.081 116.305 116.308 115.078 117.821 115.078Z" fill="black"/>
<path d="M123.3 115.078C124.813 115.078 126.04 116.305 126.04 117.818C126.04 119.332 124.813 120.558 123.3 120.558C121.786 120.558 120.56 119.332 120.56 117.818C120.56 116.305 121.786 115.078 123.3 115.078Z" fill="black"/>
<path d="M46.5803 120.56C48.0936 120.56 49.3203 121.787 49.3203 123.3C49.3203 124.813 48.0936 126.04 46.5803 126.04C45.0671 126.04 43.8403 124.813 43.8403 123.3C43.8403 121.787 45.0671 120.56 46.5803 120.56Z" fill="black"/>
<path d="M52.0598 120.56C53.5731 120.56 54.7998 121.787 54.7998 123.3C54.7998 124.813 53.5731 126.04 52.0598 126.04C50.5466 126.04 49.3198 124.813 49.3198 123.3C49.3198 121.787 50.5466 120.56 52.0598 120.56Z" fill="black"/>
<path d="M68.4998 120.56C70.0131 120.56 71.2398 121.787 71.2398 123.3C71.2398 124.813 70.0131 126.04 68.4998 126.04C66.9865 126.04 65.7598 124.813 65.7598 123.3C65.7598 121.787 66.9865 120.56 68.4998 120.56Z" fill="black"/>
<path d="M73.9807 120.56C75.494 120.56 76.7207 121.787 76.7207 123.3C76.7207 124.813 75.494 126.04 73.9807 126.04C72.4675 126.04 71.2407 124.813 71.2407 123.3C71.2407 121.787 72.4675 120.56 73.9807 120.56Z" fill="black"/>
<path d="M79.4602 120.56C80.9735 120.56 82.2002 121.787 82.2002 123.3C82.2002 124.813 80.9735 126.04 79.4602 126.04C77.947 126.04 76.7202 124.813 76.7202 123.3C76.7202 121.787 77.947 120.56 79.4602 120.56Z" fill="black"/>
<path d="M95.9006 120.56C97.414 120.56 98.6406 121.787 98.6406 123.3C98.6406 124.813 97.414 126.04 95.9006 126.04C94.3874 126.04 93.1606 124.813 93.1606 123.3C93.1606 121.787 94.3874 120.56 95.9006 120.56Z" fill="black"/>
<path d="M112.341 120.56C113.854 120.56 115.081 121.787 115.081 123.3C115.081 124.813 113.854 126.04 112.341 126.04C110.827 126.04 109.601 124.813 109.601 123.3C109.601 121.787 110.827 120.56 112.341 120.56Z" fill="black"/>
<path d="M128.78 120.56C130.293 120.56 131.52 121.787 131.52 123.3C131.52 124.813 130.293 126.04 128.78 126.04C127.267 126.04 126.04 124.813 126.04 123.3C126.04 121.787 127.267 120.56 128.78 120.56Z" fill="black"/>
<path d="M134.261 120.56C135.774 120.56 137 121.787 137 123.3C137 124.813 135.774 126.04 134.261 126.04C132.747 126.04 131.521 124.813 131.521 123.3C131.521 121.787 132.747 120.56 134.261 120.56Z" fill="black"/>
<path d="M52.0598 126.04C53.5731 126.04 54.7998 127.266 54.7998 128.78C54.7998 130.293 53.5731 131.52 52.0598 131.52C50.5466 131.52 49.3198 130.293 49.3198 128.78C49.3198 127.266 50.5466 126.04 52.0598 126.04Z" fill="black"/>
<path d="M63.0203 126.04C64.5336 126.04 65.7603 127.266 65.7603 128.78C65.7603 130.293 64.5336 131.52 63.0203 131.52C61.507 131.52 60.2803 130.293 60.2803 128.78C60.2803 127.266 61.507 126.04 63.0203 126.04Z" fill="black"/>
<path d="M68.4998 126.04C70.0131 126.04 71.2398 127.266 71.2398 128.78C71.2398 130.293 70.0131 131.52 68.4998 131.52C66.9865 131.52 65.7598 130.293 65.7598 128.78C65.7598 127.266 66.9865 126.04 68.4998 126.04Z" fill="black"/>
<path d="M79.4602 126.04C80.9735 126.04 82.2002 127.266 82.2002 128.78C82.2002 130.293 80.9735 131.52 79.4602 131.52C77.947 131.52 76.7202 130.293 76.7202 128.78C76.7202 127.266 77.947 126.04 79.4602 126.04Z" fill="black"/>
<path d="M90.4197 126.04C91.933 126.04 93.1597 127.266 93.1597 128.78C93.1597 130.293 91.933 131.52 90.4197 131.52C88.9064 131.52 87.6797 130.293 87.6797 128.78C87.6797 127.266 88.9064 126.04 90.4197 126.04Z" fill="black"/>
<path d="M95.9006 126.04C97.414 126.04 98.6406 127.266 98.6406 128.78C98.6406 130.293 97.414 131.52 95.9006 131.52C94.3874 131.52 93.1606 130.293 93.1606 128.78C93.1606 127.266 94.3874 126.04 95.9006 126.04Z" fill="black"/>
<path d="M101.381 126.04C102.894 126.04 104.121 127.266 104.121 128.78C104.121 130.293 102.894 131.52 101.381 131.52C99.8674 131.52 98.6406 130.293 98.6406 128.78C98.6406 127.266 99.8674 126.04 101.381 126.04Z" fill="black"/>
<path d="M106.86 126.04C108.373 126.04 109.6 127.266 109.6 128.78C109.6 130.293 108.373 131.52 106.86 131.52C105.347 131.52 104.12 130.293 104.12 128.78C104.12 127.266 105.347 126.04 106.86 126.04Z" fill="black"/>
<path d="M112.341 126.04C113.854 126.04 115.081 127.266 115.081 128.78C115.081 130.293 113.854 131.52 112.341 131.52C110.827 131.52 109.601 130.293 109.601 128.78C109.601 127.266 110.827 126.04 112.341 126.04Z" fill="black"/>
<path d="M46.5798 131.52C48.0932 131.52 49.3198 132.747 49.3198 134.26C49.3198 135.773 48.0932 137 46.5798 137C45.0666 137 43.8398 135.773 43.8398 134.26C43.8398 132.747 45.0666 131.52 46.5798 131.52Z" fill="black"/>
<path d="M52.0598 131.52C53.5731 131.52 54.7998 132.747 54.7998 134.26C54.7998 135.773 53.5731 137 52.0598 137C50.5466 137 49.3198 135.773 49.3198 134.26C49.3198 132.747 50.5466 131.52 52.0598 131.52Z" fill="black"/>
<path d="M73.9802 131.52C75.4935 131.52 76.7202 132.747 76.7202 134.26C76.7202 135.773 75.4935 137 73.9802 137C72.467 137 71.2402 135.773 71.2402 134.26C71.2402 132.747 72.467 131.52 73.9802 131.52Z" fill="black"/>
<path d="M79.4607 131.52C80.974 131.52 82.2007 132.747 82.2007 134.26C82.2007 135.773 80.974 137 79.4607 137C77.9475 137 76.7207 135.773 76.7207 134.26C76.7207 132.747 77.9475 131.52 79.4607 131.52Z" fill="black"/>
<path d="M84.9397 131.52C86.453 131.52 87.6797 132.747 87.6797 134.26C87.6797 135.773 86.453 137 84.9397 137C83.4265 137 82.1997 135.773 82.1997 134.26C82.1997 132.747 83.4265 131.52 84.9397 131.52Z" fill="black"/>
<path d="M90.4197 131.52C91.933 131.52 93.1597 132.747 93.1597 134.26C93.1597 135.773 91.933 137 90.4197 137C88.9064 137 87.6797 135.773 87.6797 134.26C87.6797 132.747 88.9064 131.52 90.4197 131.52Z" fill="black"/>
<path d="M101.381 131.52C102.894 131.52 104.121 132.747 104.121 134.26C104.121 135.773 102.894 137 101.381 137C99.8674 137 98.6406 135.773 98.6406 134.26C98.6406 132.747 99.8674 131.52 101.381 131.52Z" fill="black"/>
<path d="M117.821 131.52C119.334 131.52 120.561 132.747 120.561 134.26C120.561 135.773 119.334 137 117.821 137C116.307 137 115.081 135.773 115.081 134.26C115.081 132.747 116.307 131.52 117.821 131.52Z" fill="black"/>
<path d="M134.26 131.52C135.773 131.52 137 132.747 137 134.26C137 135.773 135.773 137 134.26 137C132.747 137 131.52 135.773 131.52 134.26C131.52 132.747 132.747 131.52 134.26 131.52Z" fill="black"/>
<path d="M25.2639 0.0020752H13.0969C7.16727 0.0020752 2.14366 3.91977 0.537527 9.27443C0.371428 9.82835 0.241772 10.3976 0.151626 10.9795C0.0522741 11.6217 0.000488281 12.2792 0.000488281 12.9485V25.4044C0.000488281 32.5466 5.87722 38.3547 13.0969 38.3547L19.1804 38.3558L25.2639 38.3543C32.4833 38.3543 38.3604 32.5462 38.3604 25.404V12.9485C38.3604 5.80976 32.4837 0.0020752 25.2639 0.0020752ZM32.6064 25.4044C32.6064 29.3723 29.3128 32.6007 25.2624 32.6007L19.1804 32.6019L13.0985 32.6003C9.04805 32.6003 5.75447 29.3719 5.75447 25.4044V12.9485C5.75447 11.7091 6.07593 10.5422 6.64174 9.52262C7.18645 8.54176 7.9571 7.69822 8.88502 7.05953C10.078 6.23824 11.5307 5.75606 13.0966 5.75606H25.2639C29.3128 5.75606 32.6064 8.98251 32.6064 12.9485V25.4044Z" fill="black"/>
<path d="M123.904 0.00311279H111.737C105.807 0.00311279 100.784 3.92081 99.1777 9.27547C99.0116 9.82939 98.8819 10.3986 98.7918 10.9806C98.6924 11.6227 98.6406 12.2802 98.6406 12.9496V25.4054C98.6406 32.5476 104.517 38.3557 111.737 38.3557L117.821 38.3569L123.904 38.3553C131.123 38.3553 137.001 32.5473 137.001 25.405V12.9496C137.001 5.8108 131.124 0.00311279 123.904 0.00311279ZM131.247 25.4054C131.247 29.3734 127.953 32.6017 123.903 32.6017L117.821 32.6029L111.739 32.6014C107.688 32.6014 104.395 29.373 104.395 25.4054V12.9496C104.395 11.7102 104.716 10.5433 105.282 9.52366C105.827 8.54279 106.597 7.69926 107.525 7.06057C108.718 6.23928 110.171 5.7571 111.737 5.7571H123.904C127.953 5.7571 131.247 8.98355 131.247 12.9496V25.4054Z" fill="black"/>
<path d="M25.2639 98.6433H13.0969C7.16727 98.6433 2.14366 102.561 0.537527 107.916C0.371428 108.47 0.241772 109.039 0.151626 109.621C0.0522741 110.263 0.000488281 110.92 0.000488281 111.59V124.046C0.000488281 131.188 5.87722 136.996 13.0969 136.996L19.1804 136.997L25.2639 136.996C32.4833 136.996 38.3604 131.187 38.3604 124.045V111.59C38.3604 104.451 32.4837 98.6433 25.2639 98.6433ZM32.6064 124.046C32.6064 128.014 29.3128 131.242 25.2624 131.242L19.1804 131.243L13.0985 131.242C9.04805 131.242 5.75447 128.013 5.75447 124.046V111.59C5.75447 110.35 6.07593 109.183 6.64174 108.164C7.18645 107.183 7.9571 106.339 8.88502 105.701C10.078 104.879 11.5307 104.397 13.0966 104.397H25.2639C29.3128 104.397 32.6064 107.624 32.6064 111.59V124.046Z" fill="black"/>
<path d="M27.4009 10.9603H10.9609V27.4002H27.4009V10.9603Z" fill="black"/>
<path d="M126.041 10.9603H109.601V27.4002H126.041V10.9603Z" fill="black"/>
<path d="M27.4009 109.6H10.9609V126.04H27.4009V109.6Z" fill="black"/>
</svg>
